<svg xmlns="http://www.w3.org/2000/svg" xmlns:xlink="http://www.w3.org/1999/xlink" xmlns:fi="http://pattern.flaticon.com/" x="0" y="0" width="1920" height="1080" viewBox="0 0 1920 1080"><rect x="0px" y="0px" width="100%" height="100%" opacity="1" fill="#001c34"/><defs><g transform="matrix(0.07810471206903458 0 0 0.07810471206903458 242.5 67.5)" id="L1_278"><circle cx="281" cy="229" r="8" fill="#99f7f3"/><circle cx="273" cy="289" r="8" fill="#99f7f3"/><circle cx="264" cy="348" r="8" fill="#99f7f3"/><circle cx="256" cy="408" r="8" fill="#99f7f3"/><path d="M512.079,347.524c-0.051-3.575-0.987-7.186-2.93-10.491l-15.105-25.687c-0.344-0.585-0.751-1.107-1.2-1.576     l-98.169-166.9c-2.517-4.31-5.673-8.202-9.358-11.557c-0.484-0.441-0.976-0.875-1.478-1.297     c-8.872-7.458-20.1-11.548-31.695-11.548h-2.214c-0.004,0-0.008-0.001-0.013-0.001h-17.987l-67.302-47.109V58.733     c0-4.713-3.82-8.533-8.533-8.533c-9.427,0-17.067-7.64-17.067-17.067c0-9.427,7.64-17.067,17.067-17.067     c9.427,0,17.067,7.64,17.067,17.067c0,4.713,3.82,8.533,8.533,8.533s8.533-3.82,8.533-8.533C290.229,14.281,274.948-1,256.096-1     c-18.853,0-34.133,15.281-34.133,34.133c0,15.906,10.877,29.269,25.6,33.058v5.164l-67.298,47.111h-18.08     c-0.013,0-0.025,0.003-0.038,0.003h-2.187c-11.595,0-22.823,4.09-31.697,11.55c-4.326,3.634-7.991,7.983-10.839,12.864     l-97.868,167.59c-0.442,0.467-0.843,0.984-1.18,1.561L2.776,338.753c-1.815,3.106-2.685,6.496-2.724,9.851     c-0.247,7.16,3.361,14.221,10.006,18.052l24.451,14.12c9.53,5.501,21.708,2.289,27.283-7.196l57.725-98.286l-0.015,184.509     c0,3.316,1.92,6.332,4.925,7.734l58.82,27.443c41.306,19.282,88.352,21.288,130.856,6.045c0.319-0.114,0.639-0.223,0.958-0.339     c0.644-0.235,1.286-0.48,1.928-0.724c0.793-0.299,1.585-0.603,2.374-0.915c0.472-0.187,0.943-0.375,1.413-0.566     c1.062-0.43,2.121-0.873,3.176-1.325c0.245-0.105,0.492-0.208,0.737-0.314c1.383-0.601,2.762-1.215,4.132-1.854l41.752-19.486     l17.069-7.964c3.005-1.402,4.925-4.417,4.925-7.732l0.015-184.813l58.276,98.142c1.048,1.768,2.327,3.315,3.775,4.627     c6.276,5.686,15.737,6.943,23.456,2.486l23.338-13.474C508.51,362.687,512.352,355.156,512.079,347.524z M375.518,243.907     l-0.017,210.459l-12.41,5.792l-41.483,19.354c-1.232,0.575-2.47,1.13-3.712,1.671c-0.184,0.08-0.368,0.158-0.552,0.237     c-1.002,0.432-2.008,0.85-3.017,1.259c-0.314,0.127-0.627,0.257-0.942,0.382c-0.968,0.386-1.941,0.758-2.915,1.123     c-0.872,0.326-1.747,0.642-2.623,0.951c-0.336,0.119-0.672,0.24-1.01,0.357c-26.643,9.197-55.394,10.888-83.177,4.921     l40.491-291.442l15.515-17.731l20.758,27.679c3.709,4.946,11.284,4.429,14.286-0.976l40.161-72.29     c6.598,0.561,12.884,3.142,17.992,7.432c2.819,2.369,5.214,5.213,7.08,8.404l95.011,161.532l-28.989,18.442l-54.576-91.911     c-0.416-0.7-0.893-1.306-1.417-1.824C384.915,232.729,375.519,236.045,375.518,243.907z M494.438,346.144     c0.381,0.648,0.55,1.355,0.567,2.056c-0.113,1.34-0.85,2.605-2.102,3.327l-23.35,13.484c-1.397,0.806-3.195,0.336-4.017-1.051     l-10.652-17.942l28.73-18.277L494.438,346.144z M319.658,135.536h15.755l-29.231,52.616l-15.029-20.04L319.658,135.536z      M192.447,135.536l28.503,32.574l-15.03,20.042l-29.231-52.616H192.447z M307.668,123.317l-33.915,38.759     c-0.004,0.005-0.008,0.01-0.012,0.015l-17.69,20.217l-17.69-20.217c-0.004-0.005-0.008-0.01-0.012-0.015l-34.424-39.34     l52.168-36.52l52.117,36.48L307.668,123.317z M47.076,364.469c-0.821,1.401-2.621,1.875-4.022,1.065l-24.47-14.125     c-0.868-0.501-1.379-1.374-1.461-2.3c0.03-0.44,0.147-0.881,0.385-1.288l11.682-20.004l30.067,15.918L47.076,364.469z      M136.57,454.368l0.017-210.458c0.001-8.697-11.487-11.822-15.891-4.322l-52.58,89.526l-30.311-16.047l94.358-161.58     c1.861-3.189,4.253-6.027,7.08-8.402c5.1-4.288,11.391-6.87,17.988-7.431l40.161,72.29c3.003,5.405,10.577,5.922,14.286,0.976     l20.759-27.681l14.625,16.715l-40.034,288.153c-5.611-1.87-11.143-4.063-16.563-6.593L136.57,454.368z" fill="#99f7f3"/><path d="M358.438,255c-10.198,0-19.347,4.465-25.6,11.548c-6.253-7.083-15.402-11.548-25.6-11.548     c-4.713,0-8.533,3.82-8.533,8.533s3.821,8.533,8.533,8.533c9.435,0,17.067,7.631,17.067,17.067c0,11.378,17.067,11.378,17.067,0     c0-9.435,7.631-17.067,17.067-17.067c4.713,0,8.533-3.821,8.533-8.533S363.151,255,358.438,255z" fill="#99f7f3"/></g><g transform="matrix(0.13671767711639404 0 0 0.13671767711639404 315 140)" id="L1_279"><path d="M447.061,201.297c-11.627-87.174-26.248-143.968-44.188-150.946l-74.87-49.913c-4.682-3.121-11.051-0.936-12.829,4.403     c-0.082,0.246-0.174,0.488-0.258,0.734c-12.678,6.341-35.116,10.497-59.913,10.497c-24.802,0-47.234-4.155-59.912-10.497     c-0.084-0.245-0.176-0.487-0.258-0.734c-1.779-5.339-8.147-7.524-12.829-4.403L107.134,50.35     c-17.941,6.975-32.563,63.769-44.19,150.947c-12.227,91.666-16.342,191.622-9.297,267.827c0.294,3.186,2.319,5.82,5.09,7.03     v17.783c0,9.423,7.643,17.067,17.067,17.067h25.6c9.423,0,17.067-7.643,17.067-17.067v-18.786c1.622-1.221,2.81-3.01,3.237-5.119     c0.102-0.502,0.303-1.471,0.596-2.837c0.491-2.292,1.058-4.849,1.692-7.604c1.094-4.751,2.256-9.485,3.46-14.112l8.519,25.557     c1.162,3.484,4.422,5.835,8.095,5.835v17.067c0,9.423,7.643,17.067,17.067,17.067h187.733c9.423,0,17.067-7.643,17.067-17.067     v-17.067c3.673,0,6.934-2.35,8.095-5.835l8.518-25.556c1.204,4.627,2.366,9.36,3.459,14.111c0.634,2.755,1.201,5.312,1.692,7.604     c0.293,1.367,0.495,2.335,0.596,2.837c0.427,2.109,1.616,3.898,3.238,5.119v18.786c0,9.423,7.643,17.067,17.067,17.067h25.6     c9.423,0,17.067-7.643,17.067-17.067v-17.784c2.771-1.21,4.794-3.845,5.089-7.03     C463.403,392.919,459.287,292.963,447.061,201.297z M255.003,33.137c17.857,0,34.734-1.977,48.611-5.532     c-3.709,5.384-7.986,10.319-12.773,14.71c-0.705,0.645-1.42,1.282-2.147,1.905l-33.69,28.878L221.311,44.22     c-0.726-0.622-1.439-1.258-2.144-1.902c-4.788-4.392-9.066-9.327-12.775-14.711C220.268,31.161,237.143,33.137,255.003,33.137z      M75.802,493.937v-17.066h25.6v17.066H75.802z M113.459,431.882c-2.174,7.62-4.225,15.753-6.096,23.881     c-0.322,1.398-0.627,2.748-0.915,4.041H69.97c-5.957-73.779-1.767-168.854,9.89-256.251     c5.383-40.361,12.027-75.988,18.884-101.49c3.375-12.553,6.728-22.361,9.856-28.893c0.69-1.441,1.354-2.689,1.979-3.736     c0.515,0.403,1.027,0.808,1.516,1.232c0.096,0.083,0.186,0.171,0.281,0.254c0.483,0.426,0.953,0.863,1.411,1.31     c0.172,0.168,0.342,0.337,0.511,0.508c0.415,0.419,0.819,0.847,1.213,1.283c0.122,0.135,0.248,0.266,0.368,0.402     c0.488,0.554,0.958,1.123,1.415,1.703c0.136,0.173,0.266,0.35,0.399,0.525c0.335,0.441,0.663,0.889,0.981,1.344     c0.143,0.204,0.286,0.408,0.425,0.615c0.385,0.572,0.76,1.153,1.119,1.747c0.031,0.052,0.065,0.101,0.096,0.153     c2.4,3.999,4.115,8.288,5.249,12.621c0.19,0.726,0.368,1.452,0.525,2.179c0.559,2.58,0.814,4.6,0.891,5.797     c-0.072,0.63-0.137,1.259-0.208,1.889c-0.177,1.579-0.351,3.16-0.523,4.745c-6.199,56.919-8.89,112.93-8.838,166.584     c-0.191,49.18,1.7,94.963,5.143,131.704C119.516,412.472,116.497,421.234,113.459,431.882z M348.869,493.937H161.136v-17.067     h187.733V493.937z M366.409,438.534c-0.12,0.956-0.217,1.714-0.29,2.269l-6.334,19.001h-2.383h-204.8h-2.383l-6.334-19.001     c-0.073-0.555-0.171-1.313-0.29-2.269c-0.319-2.552-0.676-5.569-1.06-9.034c-1.102-9.926-2.204-21.43-3.234-34.372     c-3.052-38.356-4.783-78.905-4.821-120.912c0.213-53.455,2.911-110.991,8.79-165.12c0.178-1.63,0.357-3.26,0.541-4.891     c0.069-0.61,0.136-1.222,0.205-1.831c-0.058-3.614-0.493-7.565-1.426-11.718c-1.349-6.01-3.751-12.447-7.641-18.928     c-0.478-0.796-0.979-1.575-1.491-2.346c-0.103-0.155-0.207-0.31-0.312-0.465c-1.037-1.53-2.143-3.008-3.32-4.431     c-0.124-0.15-0.248-0.299-0.373-0.447c-0.597-0.707-1.206-1.405-1.838-2.084c0,0,0-0.001-0.001-0.001     c-0.623-0.669-1.269-1.319-1.927-1.959c-0.148-0.144-0.297-0.288-0.447-0.431c-0.159-0.151-0.313-0.307-0.473-0.457l57.9-38.6     c5.466,12.048,13.156,22.976,22.668,32.218c0.033,0.032,0.066,0.065,0.099,0.097c0.652,0.631,1.313,1.254,1.981,1.87     c0.148,0.137,0.294,0.277,0.443,0.413c0.771,0.702,1.551,1.394,2.344,2.074l0.001,0.001c0,0,0,0,0,0l39.244,33.638     c3.196,2.739,7.911,2.739,11.107,0l39.245-33.638c0.792-0.679,1.572-1.372,2.342-2.073c0.155-0.141,0.306-0.286,0.46-0.428     c0.662-0.609,1.316-1.226,1.961-1.851c0.039-0.038,0.078-0.077,0.117-0.115c9.507-9.24,17.193-20.164,22.656-32.206l57.9,38.6     c-0.156,0.145-0.305,0.296-0.459,0.443c-0.16,0.153-0.319,0.307-0.478,0.461c-0.639,0.622-1.266,1.254-1.872,1.903     c-0.016,0.017-0.033,0.034-0.049,0.051c-0.624,0.67-1.225,1.359-1.814,2.057c-0.135,0.161-0.27,0.322-0.404,0.484     c-1.165,1.411-2.261,2.875-3.289,4.39c-0.115,0.169-0.229,0.339-0.342,0.509c-0.507,0.764-1.003,1.535-1.476,2.324     c-2.493,4.154-4.376,8.291-5.767,12.245c-2.279,6.476-3.233,12.46-3.353,17.219c0.083,0.731,0.163,1.465,0.245,2.198     c0.165,1.48,0.327,2.958,0.487,4.436c5.927,54.85,8.641,112.834,8.852,166.556c-0.041,42.009-1.77,82.471-4.816,120.748     c-1.03,12.942-2.133,24.446-3.234,34.372C367.085,432.965,366.728,435.982,366.409,438.534z M387.449,406.027     c3.44-36.704,5.33-82.43,5.143-131.553c0.057-53.809-2.644-109.992-8.876-167.084c-0.135-1.248-0.273-2.493-0.412-3.737     c-0.095-0.849-0.184-1.698-0.281-2.547c0.077-1.197,0.332-3.217,0.891-5.797c0.48-2.217,1.119-4.431,1.909-6.613     c1.016-2.806,2.289-5.559,3.865-8.186c0.017-0.029,0.036-0.056,0.053-0.084c0.376-0.623,0.769-1.231,1.173-1.831     c0.131-0.195,0.266-0.386,0.4-0.578c0.329-0.471,0.668-0.935,1.016-1.391c0.123-0.162,0.244-0.327,0.37-0.487     c0.462-0.588,0.938-1.164,1.432-1.725c0.109-0.123,0.223-0.242,0.333-0.364c0.407-0.451,0.825-0.893,1.254-1.326     c0.16-0.162,0.321-0.323,0.485-0.482c0.473-0.461,0.958-0.912,1.456-1.352c0.081-0.072,0.158-0.146,0.24-0.217     c0.492-0.426,1.007-0.833,1.524-1.238c0.624,1.046,1.288,2.294,1.978,3.735c3.128,6.532,6.481,16.34,9.856,28.893     c6.857,25.502,13.501,61.129,18.884,101.49c11.657,87.398,15.847,182.472,9.89,256.251h-36.479     c-0.288-1.293-0.593-2.642-0.915-4.041c-1.871-8.128-3.922-16.261-6.096-23.881C393.507,421.234,390.488,412.472,387.449,406.027     z M408.602,493.937v-17.066h25.6v17.066H408.602z" fill="#6f7bf7"/><path d="M280.602,127.004h-51.2c-23.563,0-42.667,19.104-42.667,42.667c0,23.563,19.104,42.667,42.667,42.667h51.2     c23.563,0,42.667-19.104,42.667-42.667C323.268,146.108,304.165,127.004,280.602,127.004z M280.602,195.271h-51.2     c-14.137,0-25.6-11.463-25.6-25.6s11.463-25.6,25.6-25.6h51.2c14.137,0,25.6,11.463,25.6,25.6S294.739,195.271,280.602,195.271z" fill="#6f7bf7"/><path d="M226.902,155.103c-3.332-3.332-8.735-3.332-12.068,0c-3.333,3.332-3.333,8.735,0,12.068l17.067,17.067     c3.332,3.332,8.735,3.332,12.068,0c3.333-3.333,3.333-8.736,0-12.068L226.902,155.103z" fill="#6f7bf7"/><path d="M278.102,155.103c-3.333-3.332-8.735-3.332-12.068,0c-3.332,3.332-3.332,8.735,0,12.068l17.067,17.067     c3.332,3.332,8.735,3.332,12.068,0c3.332-3.333,3.332-8.736,0-12.068L278.102,155.103z" fill="#6f7bf7"/></g><g transform="matrix(0.07812438905239105 0 0 0.07812438905239105 67.5 67.5)" id="L1_280"><circle cx="288" cy="280" r="8" fill="#6f7bf7"/><circle cx="288" cy="340" r="8" fill="#6f7bf7"/><circle cx="288" cy="400" r="8" fill="#6f7bf7"/><path d="M382.787,237.939h-51.2c-4.713,0-8.533,3.82-8.533,8.533v68.267c0,4.713,3.82,8.533,8.533,8.533h51.2     c4.713,0,8.533-3.82,8.533-8.533v-68.267C391.32,241.76,387.499,237.939,382.787,237.939z M374.253,306.206H340.12v-51.2h34.133     V306.206z" fill="#6f7bf7"/><path d="M432.492,189.381c-24.73-21.227-37.919-69.219-26.586-155.128c0.555-4.207-2.066-8.183-6.151-9.331l-91.093-25.6     c-4.957-1.393-10.009,1.888-10.753,6.983c-0.059,0.405-0.059,0.405-0.353,2.378c-0.034,0.225-0.07,0.469-0.105,0.702     c-9.452,9.33-25.047,15.219-42.295,15.219c-17.237,0-32.833-5.858-42.29-15.146c-0.039-0.258-0.079-0.527-0.116-0.775     c-0.294-1.974-0.294-1.974-0.353-2.378c-0.743-5.093-5.793-8.374-10.748-6.984l-91.273,25.6     c-4.088,1.146-6.711,5.123-6.156,9.332c11.333,85.909-1.856,133.901-26.589,155.131c-8.406,7.208-11.855,18.447-9.358,29.384     c3.84,16.796,6.224,57.92,7.295,115.11c0.69,36.852,0.778,76.021,0.515,111.777c-0.029,3.883-0.059,7.35-0.09,10.354     c-0.018,1.8-0.033,3.048-0.041,3.687c-0.048,3.84,2.474,7.24,6.164,8.306l147.661,42.667c2.358,0.681,4.895,0.314,6.963-1.007     l34.293-21.908l20.751,20.751c2.286,2.286,5.669,3.084,8.736,2.06l127.821-42.667c3.491-1.165,5.841-4.437,5.831-8.118     c-0.001-0.311-0.001-0.311-0.003-1.822c-0.016-11.433,0.015-26.851,0.133-44.817c0.178-27.199,0.521-54.076,1.066-79.193     c1.246-57.411,3.404-98.613,6.554-115.516C443.982,207.364,440.746,196.459,432.492,189.381z M293.814,32.71     c-0.365,2.267-0.74,4.58-1.126,6.942c-4.095,25.032-8.544,50.06-13.187,73.4c-1.282,6.446-2.558,12.654-3.826,18.61     c-0.016,0.075-0.032,0.15-0.048,0.224c-0.259,1.217-0.518,2.405-0.776,3.6c-4.094,18.839-8.139,35.082-11.87,47.85     c-1.102,3.719-2.193,7.188-3.268,10.356c-1.592,4.691-3.147,8.668-4.56,11.846c-1.414-3.178-2.968-7.155-4.56-11.846     c-0.986-2.904-1.985-6.072-2.993-9.441c-4.185-14.195-8.778-32.823-13.399-54.636c-0.01-0.049-0.021-0.098-0.031-0.147     c-0.357-1.685-0.714-3.395-1.07-5.117c-0.191-0.922-0.382-1.853-0.573-2.786c-0.633-3.087-1.259-6.197-1.88-9.322     c-0.329-1.657-0.655-3.333-0.982-5.006c-0.27-1.382-0.54-2.764-0.808-4.151c-0.494-2.562-0.986-5.133-1.475-7.726     c-0.013-0.07-0.026-0.14-0.04-0.211c-3.395-18.026-6.658-36.759-9.723-55.495c-0.385-2.352-0.758-4.655-1.121-6.913     c11.172,5.734,24.574,8.93,38.659,8.93C269.245,41.67,282.646,38.463,293.814,32.71z M230.807,493.2l-137.72-39.794     c0.022-2.323,0.043-4.871,0.063-7.626c0.264-35.892,0.176-75.198-0.518-112.222c-1.097-58.589-3.508-100.162-7.721-118.592     c-1.116-4.886,0.343-9.637,3.833-12.629c28.852-24.765,43.607-76.274,33.317-162.968l74.895-21.006     c0.347,2.255,0.711,4.597,1.088,7.002c4.465,28.598,9.868,60.028,15.833,90.055c0.063,0.319,0.126,0.645,0.189,0.964     c0.063,0.316,0.125,0.621,0.188,0.936c0.222,1.113,0.446,2.221,0.67,3.33c0.271,1.344,0.542,2.68,0.813,4.003     c0.072,0.354,0.144,0.712,0.216,1.065c0.122,0.594,0.243,1.169,0.364,1.758c0.182,0.882,0.365,1.766,0.547,2.639     c7.252,34.813,13.904,60.775,20.618,77.458c2.964,7.541,5.905,13.138,9.136,16.906v235.325c0,2.263,0.899,4.434,2.499,6.034     l9.558,9.558L230.807,493.2z M425.144,215.307c-3.392,18.204-5.568,59.748-6.838,118.27c-0.547,25.213-0.891,52.173-1.069,79.452     c-0.104,15.842-0.14,29.71-0.137,40.629l-116.977,39.047l-21.861-21.861c-0.003-0.003-0.005-0.006-0.008-0.008l-14.567-14.567     v-231.79c3.169-3.697,6.061-9.16,8.968-16.485c7.062-17.375,14.049-44.992,21.728-82.391     c7.185-34.995,13.666-72.757,18.753-105.851c0.071-0.462,0.144-0.93,0.214-1.385l74.717,20.998     c-10.29,86.697,4.464,138.207,33.314,162.97C424.743,205.219,426.143,209.937,425.144,215.307z" fill="#6f7bf7"/></g><g transform="matrix(0.0390625 0 0 0.0390625 77.5 340)" id="L1_281"><path d="M211.907,195.267v68.267c0,5.12,3.413,8.533,8.533,8.533s8.533-3.413,8.533-8.533v-68.267     c0-5.12-3.413-8.533-8.533-8.533S211.907,190.147,211.907,195.267z" fill="#99f7f3"/><path d="M288.707,186.733c-5.12,0-8.533,3.413-8.533,8.533v68.267c0,5.12,3.413,8.533,8.533,8.533     c5.12,0,8.533-3.413,8.533-8.533v-68.267C297.24,190.147,293.827,186.733,288.707,186.733z" fill="#99f7f3"/><path d="M169.24,434.2h85.333h85.333c5.12,0,8.533-3.413,8.533-8.533v-34.133c0-5.12-3.413-8.533-8.533-8.533     c-17.92,0-34.133-22.187-34.133-51.2c0-5.12-3.413-8.533-8.533-8.533h-42.667h-42.667c-5.12,0-8.533,3.413-8.533,8.533     c0,29.013-16.213,51.2-34.133,51.2c-5.12,0-8.533,3.413-8.533,8.533v34.133C160.707,430.787,164.12,434.2,169.24,434.2z      M331.373,399.213v17.92h-68.267v-76.8h25.6C292.12,370.2,309.187,394.093,331.373,399.213z M177.773,399.213     c22.187-5.12,39.253-29.013,42.667-58.88h25.6v76.8h-68.267V399.213z" fill="#99f7f3"/><path d="M433.773,319c-8.533-58.027-23.04-104.96-43.52-137.387c-1.707-1.707-2.56-3.413-5.12-5.973     c-3.133-3.133-6.977-6.985-10.228-10.896c-0.003-0.067-0.012-0.127-0.012-0.197c-4.267-6.827-19.627-22.187-33.28-34.133     l-5.973-60.587C330.52,29.72,295.533-1,254.573-1c-40.96,0-75.947,30.72-81.067,70.827l-5.973,62.293     c-12.415,10.863-26.238,23.841-31.21,31.238c-0.122,0.11-0.245,0.217-0.363,0.335c-3.413,4.267-7.68,7.68-11.093,11.947     c-1.707,2.56-3.413,4.267-4.267,5.12C99.267,214.04,84.76,260.973,76.227,319c-8.533,58.027-11.093,118.613-9.387,171.52     c0,3.035,0,5.395,0,7.68c0,0.285,0,0.569,0,0.853c0,1.159,0,1.921,0,2.56c0,0.302,0,0.579,0,0.853c0,4.267,4.267,7.68,8.533,7.68     h34.133c3.413,0,6.827-1.707,7.68-5.12l22.112-53.375c1.411,1.327,2.86,2.602,4.341,3.831v38.45     c0,9.387,7.68,17.067,17.067,17.067H348.44c9.387,0,17.067-7.68,17.067-17.067v-37.757c1.778-1.441,3.514-2.945,5.194-4.525     l17.211,41.543l4.049,12.685c1.707,3.413,4.267,5.12,7.68,5.12h34.133c2.273,0,4.539-0.976,6.167-2.655     c1.901-1.405,3.22-3.508,3.22-5.878c0-0.853,0-1.707,0-3.413c0-2.56,0-5.12,0-8.533C444.867,437.613,442.307,377.027,433.773,319     z M425.24,491.373c0,0.853,0,1.707,0,2.56h-19.627l-10.24-25.6h30.373C425.652,476.148,425.487,483.849,425.24,491.373z      M416.707,322.413c6.455,43.25,8.999,87.959,9.119,129.707h-38.6l-4.652-11.093c0.047-1.278,0.092-2.545,0.137-3.813     c0.417-1.005,0.716-2.009,0.716-3.014c3.87-112.24,2.825-185.86-1.224-229.779C398.514,233.323,409.229,274.226,416.707,322.413z      M182.04,143.213c1.707-1.707,2.56-3.413,2.56-5.973l6.827-64.853c3.413-32.427,30.72-56.32,63.147-56.32     c32.427,0,59.733,23.893,64,56.32l5.973,64.853c0,2.56,1.707,4.267,3.413,5.973c12.8,10.24,28.16,25.6,32.427,31.573     c0,0,0.042,0.044,0.099,0.108c0.236,0.816,0.495,1.673,0.754,2.452c0.853,4.267,1.707,11.093,3.413,19.627     c1.747,15.141,3.096,34.26,3.947,57.722c1.216,42.734,0.754,100.941-1.387,176.945c-3.688,4.555-7.874,8.667-12.442,12.27     c-0.99,0.272-1.976,0.71-2.918,1.383c-12.8,9.387-29.013,14.507-45.227,14.507H203.373c-16.213,0-32.427-5.12-46.08-15.36     c-0.834-0.596-1.702-1.009-2.578-1.289c-4.038-3.379-7.759-7.22-11.076-11.511c-1.596-45.313-2.355-84.181-2.414-117.231     c0.094-52.634,1.931-91.063,4.974-117.435c0.853-8.533,1.707-15.36,3.413-19.627c0.412-1.237,0.824-2.671,1.14-3.825     C154.66,168.036,169.563,153.195,182.04,143.213z M128.041,202.543c-2.28,23.085-3.672,55.371-3.863,97.895     c-0.32,38.497,0.353,85.044,2.395,140.589l-4.294,10.24H84.293c0.352-41.502,3.231-85.899,9.001-128.853     C100.935,273.166,111.959,232.371,128.041,202.543z M84.76,493.933c0-0.853,0-1.707,0-2.56c0-0.988,0-2.085,0-3.413     c0-5.973,0-12.8,0-19.627h30.362l-10.735,25.6H84.76z M348.44,493.933H160.707v-27.212c3.198,1.63,6.489,3.073,9.863,4.322     c0.074,0.028,0.147,0.056,0.222,0.084c0.769,0.282,1.543,0.553,2.32,0.815c0.098,0.033,0.194,0.068,0.292,0.101     c9.489,3.165,19.574,4.824,29.971,4.824h103.253c14.851,0,29.068-3.379,41.813-9.711V493.933z" fill="#99f7f3"/><path d="M247.747,178.2H261.4c29.013,0,51.2-25.6,46.933-53.76l-6.827-50.347c-2.56-23.04-23.04-40.96-46.933-40.96     s-44.373,17.92-46.933,40.96l-6.827,50.347C197.4,152.6,219.587,178.2,247.747,178.2z M217.88,127l6.827-50.347     c1.707-15.36,14.507-26.453,29.867-26.453s28.16,11.093,29.867,26.453L291.267,127c2.56,17.92-11.947,34.133-29.867,34.133     h-13.653C228.973,161.133,215.32,144.92,217.88,127z" fill="#99f7f3"/></g><g transform="matrix(0.1697916491523753 0.04549553527192747 -0.04549553527192747 0.1697916491523753 318.15294316417624 294.91735293650663)" id="L1_282"><path d="M436.162,289.133c-7.68-83.627-23.04-147.627-46.933-184.32c-1.707-1.707-11.947-13.653-15.36-17.92     c-0.854-0.854-1.796-1.474-2.777-1.897c-8.632-8.406-16.525-14.493-23.677-16.877c0.853-9.387-1.707-20.48-7.68-30.72     C326.935,13.507,298.775-1,254.402-1s-72.533,14.507-85.333,38.4c-5.973,10.24-8.533,21.333-8.533,30.72     c-6.827,2.56-14.507,8.533-24.747,18.773c-3.413,4.267-7.68,7.68-11.093,11.947c-1.707,2.56-3.413,4.267-4.267,5.12     c-23.893,37.547-39.253,101.547-46.933,185.173c-6.827,66.56-7.68,136.533-6.827,197.973c0,0.291,0,0.57,0,0.853     c0,3.87,0,7.06,0,10.24c0,1.251,0,2.498,0,3.413c0,0.333,0,0.625,0,0.853c0,4.267,4.267,8.533,8.533,8.533h34.133     c3.413,0,6.827-1.707,7.68-5.12l22.369-53.994c1.33,1.242,2.692,2.441,4.084,3.597v38.45c0,9.387,7.68,17.067,17.067,17.067     h187.733c9.387,0,17.067-7.68,17.067-17.067v-37.757c1.689-1.369,3.338-2.796,4.938-4.29l18.002,43.453l3.514,10.541     c1.707,3.413,4.267,5.12,7.68,5.12h0.853h33.28h0.853c4.267,0,8.533-3.413,8.533-8.533c0-0.853,0-1.707,0-4.267     c0-3.413,0-6.827,0-11.093C444.695,425.667,442.989,355.693,436.162,289.133z M419.095,291.693     c4.837,53.202,6.874,108.638,6.569,160.427h-38.968l-4.294-10.24c0.065-1.606,0.126-3.196,0.189-4.794     c0.389-0.962,0.665-1.924,0.665-2.886c3.413-104.96,2.56-191.147-0.853-261.12c-0.693-20.108-1.95-37.398-3.312-51.872     C398.659,155.371,411.429,215.026,419.095,291.693z M425.069,493.933h-19.627l-10.24-25.6h30.282     c-0.103,6.613-0.236,13.171-0.415,19.627C425.069,490.224,425.069,491.823,425.069,493.933z M90.562,290.84     c7.562-74.779,20.092-133.821,39.211-169.017c-1.385,15.054-2.668,32.42-3.371,52.11c-1.65,44.538-2.588,96.175-2.136,155.343     c0.157,34.873,0.837,72.135,2.136,111.751l-4.294,10.24H83.992C83.697,399.806,85.735,343.933,90.562,290.84z M104.215,493.933     H84.589c0-1.517,0-3.708,0-5.973c0-0.284,0-0.568,0-0.853c0-5.768,0-12.266,0-18.773h30.362L104.215,493.933z M348.269,493.933     H160.535v-27.212c3.198,1.63,6.489,3.073,9.863,4.322c0.074,0.028,0.147,0.056,0.222,0.084c0.769,0.282,1.543,0.553,2.32,0.815     c0.098,0.033,0.194,0.068,0.292,0.101c9.489,3.165,19.574,4.824,29.971,4.824h103.253c14.851,0,29.068-3.379,41.813-9.711     V493.933z M320.043,458.592c-0.323,0.057-0.645,0.118-0.969,0.171c-0.397,0.066-0.796,0.124-1.194,0.184     c-0.587,0.087-1.174,0.168-1.763,0.242c-0.266,0.033-0.531,0.069-0.797,0.1c-0.882,0.101-1.766,0.188-2.651,0.26     c-0.169,0.014-0.339,0.023-0.509,0.035c-0.754,0.055-1.509,0.1-2.264,0.133c-0.238,0.011-0.476,0.021-0.714,0.03     c-0.908,0.032-1.817,0.054-2.726,0.054H203.202c-0.911,0-1.822-0.022-2.733-0.054c-0.229-0.008-0.458-0.018-0.687-0.029     c-0.807-0.036-1.613-0.082-2.419-0.143c-0.106-0.008-0.213-0.014-0.319-0.022c-0.964-0.077-1.926-0.172-2.887-0.286     c-0.058-0.007-0.115-0.015-0.172-0.022c-0.965-0.116-1.928-0.249-2.889-0.402c-0.007-0.001-0.015-0.002-0.022-0.003     c-8.013-1.279-15.867-3.834-23.243-7.664c-0.038-0.02-0.075-0.04-0.112-0.06c-0.717-0.374-1.427-0.768-2.135-1.166     c-0.315-0.178-0.631-0.355-0.943-0.538c-0.231-0.134-0.459-0.277-0.69-0.414c-7.752-4.656-14.723-10.758-20.482-18.21     c-1.44-43.552-2.118-83.751-2.167-120.816c0.065-48.697,1.162-92.345,3.021-130.918c1.554-38.862,4.524-69.22,6.331-81.42     c5.819-5.786,10.809-9.947,13.876-11.662c2.178,3.847,5.174,8.198,8.807,12.868c10.24,12.8,23.04,20.48,38.4,20.48     c5.12,0,8.533-3.413,8.533-8.533s-3.413-8.533-8.533-8.533c-9.387,0-17.92-5.12-25.6-13.653c-2.56-3.413-5.12-6.827-6.827-10.24     c-1.091-2.182-1.485-3.661-1.85-4.671c-0.433-8.797,1.378-18.214,6.116-26.902c10.24-19.627,32.427-30.72,70.827-30.72     c38.4,0,60.587,11.093,70.827,29.867c5.12,9.387,6.827,19.627,5.973,28.16c-0.006,0.045-0.005,0.089-0.01,0.134     c-1.918,3.496-6.523,10.852-8.524,13.519c-7.68,8.533-16.213,13.653-25.6,13.653c-5.12,0-8.533,3.413-8.533,8.533     s3.413,8.533,8.533,8.533c15.36,0,28.16-7.68,38.4-20.48c3.71-4.24,6.76-8.809,8.949-12.889     c3.377,1.735,8.944,6.036,14.944,12.036c0,0.853,0.853,10.24,1.707,16.213c1.707,16.213,3.413,36.693,4.267,60.587     c3.413,68.267,4.267,153.6,0.853,256.853C354.567,445.827,338.014,455.384,320.043,458.592z" fill="#6f7bf7"/><path d="M241.602,101.4h25.6c5.12,0,10.24-2.56,13.653-5.973l20.48-26.453c8.533-11.093,0.853-27.307-13.653-27.307h-66.56     c-14.507,0-22.187,16.213-13.653,27.307l20.48,25.6C231.362,98.84,236.482,101.4,241.602,101.4z M287.682,58.733l-20.48,25.6     h-25.6l-20.48-25.6H287.682z" fill="#6f7bf7"/><path d="M228.802,203.8c5.12,0,8.533-3.413,8.533-8.533V127c0-5.12-3.413-8.533-8.533-8.533c-5.12,0-8.533,3.413-8.533,8.533     v68.267C220.269,200.387,223.682,203.8,228.802,203.8z" fill="#6f7bf7"/><path d="M271.469,127v68.267c0,5.12,3.413,8.533,8.533,8.533s8.533-3.413,8.533-8.533V127c0-5.12-3.413-8.533-8.533-8.533     S271.469,121.88,271.469,127z" fill="#6f7bf7"/><path d="M339.735,391.533c-17.92,0-34.133-22.187-34.133-51.2c0-5.12-3.413-8.533-8.533-8.533h-42.667h-42.667     c-5.12,0-8.533,3.413-8.533,8.533c0,29.013-16.213,51.2-34.133,51.2c-5.12,0-8.533,3.413-8.533,8.533V434.2     c0,5.12,3.413,8.533,8.533,8.533h85.333h85.333c5.12,0,8.533-3.413,8.533-8.533v-34.133     C348.269,394.947,344.855,391.533,339.735,391.533z M177.602,407.747c22.187-5.12,39.253-29.013,42.667-58.88h25.6v76.8h-68.267     V407.747z M331.202,425.667h-68.267v-76.8h25.6c3.413,29.867,20.48,53.76,42.667,58.88V425.667z" fill="#6f7bf7"/></g><g transform="matrix(0.17579978704452515 0 0 0.17579978704452515 216.5 217.50000040773875)" id="L1_283"><path d="M508.84,198.359L418.475,83.35c0.2-15.761-22.454-32.348-81.156-50.538l-24.747-23.04l-0.329,0.329     c-2.126-2.418-5.59-3.756-9.058-2.889l-1.707,0.853c-30.72,10.24-63.147,10.24-93.013,0l-1.707-0.853     c-4.586-1.147-9.167,1.56-10.649,5.529l-20.925,20.925c-53,16.422-75.961,31.539-80.31,45.349L1.106,198.359     c-3.413,3.413-2.56,9.387,1.707,11.947l59.733,42.667c2.56,1.707,5.973,1.707,8.533,0.853l48.64-25.71v266.35     c0,5.12,3.413,8.533,8.533,8.533h256c5.12,0,8.533-3.413,8.533-8.533V229.469l46.08,24.357c2.56,1.707,5.973,0.853,8.533-0.853     l59.733-42.667C511.4,207.745,512.253,201.772,508.84,198.359z M291.154,29.416l-26.368,58.01c-3.413,7.68-14.507,7.68-17.92,0     l-26.368-58.009C243.485,34.512,267.319,34.511,291.154,29.416z M118.866,209.452L68.52,235.906l-47.787-34.133L104.262,95.23     c4.221,4.267,7.953,12.964,11.191,24.622c1.707,6.827,2.56,14.507,3.413,23.04c0,2.56,0.853,5.12,0.853,7.68     c0,0.727,0,1.289,0,1.707c0,0.563,0,0.853,0,0.853v56.32H118.866z M135.933,485.079v-332.8c0-0.853,0-1.707,0-3.413     c0-2.56,0-5.12-0.853-8.533c-0.853-8.533-2.56-17.067-4.267-24.747c-3.997-15.99-9.555-28.338-17.892-35.015     c0.844-0.844,1.697-1.697,3.385-3.385c11.093-8.533,31.573-17.92,64.853-28.16c1.707,0,2.56-0.853,3.413-2.56l16.747-16.747     l29.333,64.533c9.387,20.48,39.253,20.48,48.64,0l29.333-64.533l16.747,16.747c0.853,0.853,2.56,1.707,3.413,2.56     c33.28,10.24,53.76,19.627,64.853,28.16c1.707,0.853,2.56,2.56,3.413,3.413c-8.533,6.827-13.653,18.773-17.92,34.987     c-1.707,7.68-3.413,16.213-4.267,24.747c0,2.56-0.853,5.973-0.853,8.533c0,1.707,0,2.56,0,3.413l0.853,332.8H135.933z      M442.28,235.052l-49.493-25.166v-57.607c0,0,0-0.853,0-2.56c0-2.56,0-5.12,0.853-7.68c0.853-7.68,1.707-15.36,3.413-23.04     c2.419-10.884,6.125-19.177,10.203-23.705l82.81,105.625L442.28,235.052z" fill="#99f7f3"/><path d="M350.973,209.452l-63.147-7.68l-23.893-51.2c-3.413-6.827-12.8-6.827-15.36,0l-23.893,51.2l-63.147,7.68     c-7.68,0.853-10.24,10.24-4.267,15.36l47.787,39.253l-6.827,58.027c-0.853,7.68,7.68,11.947,13.653,7.68l44.373-30.72     l44.373,30.72c5.973,4.267,14.507-0.853,13.653-7.68l-6.827-58.027l47.787-39.253     C361.213,219.692,358.653,210.305,350.973,209.452z M292.946,253.825c-2.56,1.707-3.413,5.12-3.413,7.68l5.12,43.52     l-34.133-23.893c-2.56-1.707-6.827-1.707-9.387,0l-34.133,23.893l4.267-43.52c0-2.56-0.853-5.973-3.413-7.68l-35.84-29.013     l48.64-5.973c2.56,0,5.12-2.56,6.827-5.12l17.92-38.4l17.92,38.4c0.853,2.56,3.413,4.267,6.827,5.12l48.64,5.973L292.946,253.825     z" fill="#99f7f3"/></g><path d="M447.061,201.297c-11.626-87.168-26.246-143.96-44.184-150.945L328.004,0.437c-1.463-0.975-3.091-1.433-4.692-1.437    c-3.523-0.011-6.916,2.169-8.139,5.84c-0.082,0.246-0.174,0.488-0.258,0.734c-12.678,6.341-35.116,10.497-59.913,10.497    c-24.802,0-47.234-4.155-59.912-10.497c-0.084-0.245-0.176-0.487-0.258-0.734c-1.223-3.671-4.615-5.851-8.138-5.84    c-1.601,0.005-3.229,0.462-4.692,1.437l-74.87,49.913c-17.94,6.978-32.561,63.772-44.188,150.946    c-12.227,91.666-16.342,191.622-9.297,267.827c0.294,3.186,2.319,5.82,5.09,7.03v17.783c0,9.423,7.643,17.067,17.067,17.067h25.6    c9.423,0,17.067-7.643,17.067-17.067v-18.786c1.622-1.221,2.81-3.01,3.237-5.119c0.102-0.502,0.303-1.471,0.596-2.837    c0.491-2.292,1.058-4.849,1.692-7.604c1.094-4.751,2.256-9.485,3.46-14.112l8.519,25.557c1.162,3.484,4.422,5.835,8.095,5.835    v17.067c0,9.423,7.643,17.067,17.067,17.067h187.733c9.423,0,17.067-7.643,17.067-17.067v-17.067c3.673,0,6.934-2.35,8.095-5.835    l8.518-25.556c1.204,4.627,2.366,9.36,3.459,14.111c0.634,2.755,1.201,5.312,1.692,7.604c0.293,1.367,0.495,2.335,0.596,2.837    c0.427,2.109,1.616,3.898,3.238,5.119v18.786c0,9.423,7.643,17.067,17.067,17.067h25.6c9.423,0,17.067-7.643,17.067-17.067    v-17.784c2.771-1.21,4.794-3.845,5.089-7.03C463.403,392.919,459.287,292.963,447.061,201.297z M143.27,109.095    c0.178-1.63,0.357-3.26,0.541-4.891c0.069-0.61,0.136-1.222,0.205-1.831c0-0.015-0.001-0.03-0.001-0.045l0.05-1.136    c-0.172-6.908-2.108-16.396-7.3-26.225c-0.569-1.078-1.166-2.158-1.815-3.24c-0.478-0.796-0.979-1.575-1.491-2.346    c-0.103-0.155-0.207-0.31-0.312-0.465c-1.037-1.53-2.143-3.008-3.32-4.431c-0.124-0.15-0.248-0.299-0.373-0.447    c-0.597-0.707-1.206-1.405-1.838-2.084c0,0,0-0.001-0.001-0.001c-0.623-0.669-1.269-1.319-1.927-1.959    c-0.148-0.144-0.297-0.288-0.447-0.431c-0.159-0.151-0.313-0.307-0.473-0.457l57.899-38.599    c5.473,12.065,13.177,23.007,22.707,32.257c0.013,0.013,0.026,0.026,0.039,0.039c0.68,0.659,1.369,1.309,2.067,1.95    c0.121,0.112,0.24,0.225,0.361,0.336c0.776,0.707,1.562,1.405,2.36,2.09l36.266,31.085v89.942H137.515    C138.911,154.936,140.813,131.719,143.27,109.095z M263.538,88.262l36.265-31.084c0.803-0.689,1.593-1.391,2.373-2.102    c0.103-0.094,0.203-0.19,0.306-0.285c0.715-0.656,1.42-1.322,2.116-1.997c0.007-0.007,0.015-0.014,0.022-0.022    c2.601-2.524,5.071-5.169,7.391-7.935c6.186-7.371,11.345-15.557,15.327-24.333l57.9,38.6c-0.156,0.145-0.305,0.296-0.459,0.443    c-0.16,0.153-0.319,0.307-0.478,0.461c-0.639,0.622-1.266,1.254-1.872,1.903c-0.016,0.017-0.033,0.034-0.049,0.051    c-0.624,0.67-1.225,1.359-1.814,2.057c-0.135,0.161-0.27,0.322-0.404,0.484c-1.165,1.411-2.261,2.875-3.289,4.39    c-0.115,0.169-0.229,0.339-0.342,0.509c-0.507,0.764-1.003,1.535-1.476,2.324c-2.493,4.154-4.376,8.291-5.767,12.245    c-2.279,6.476-3.233,12.46-3.353,17.219c0.003,0.025,0.005,0.05,0.008,0.075l0.049,1.106c1.359,11.924,2.56,23.893,3.615,35.896    c1.134,13.245,2.095,26.59,2.89,39.937H263.538V88.262z M255.003,33.137c17.857,0,34.734-1.977,48.611-5.532    c-3.709,5.384-7.986,10.319-12.773,14.71c-0.705,0.645-1.42,1.282-2.147,1.905l-33.69,28.878L221.311,44.22    c-0.726-0.622-1.439-1.258-2.144-1.902c-4.788-4.392-9.066-9.327-12.775-14.711C220.268,31.161,237.143,33.137,255.003,33.137z     M75.802,493.937v-17.066h25.6v17.066H75.802z M113.459,431.882c-2.174,7.62-4.225,15.753-6.096,23.881    c-0.322,1.398-0.627,2.748-0.915,4.041H69.97c-5.957-73.779-1.767-168.854,9.89-256.251c5.383-40.361,12.027-75.988,18.884-101.49    c3.375-12.553,6.728-22.361,9.856-28.893c0.69-1.441,1.354-2.689,1.978-3.735c0.518,0.405,1.032,0.812,1.524,1.238    c0.082,0.071,0.159,0.146,0.24,0.217c0.499,0.439,0.983,0.891,1.456,1.352c0.163,0.159,0.324,0.32,0.485,0.482    c0.429,0.433,0.846,0.875,1.254,1.326c0.11,0.122,0.224,0.24,0.333,0.364c0.494,0.561,0.971,1.137,1.433,1.725    c0.125,0.159,0.245,0.323,0.367,0.484c0.349,0.457,0.688,0.922,1.018,1.395c0.133,0.191,0.268,0.382,0.398,0.576    c0.406,0.602,0.801,1.212,1.178,1.837c0.016,0.027,0.034,0.052,0.05,0.079c1.675,2.791,3.011,5.724,4.056,8.713    c0.703,2.012,1.276,4.048,1.718,6.087c0.559,2.58,0.814,4.6,0.891,5.797c-0.062,0.542-0.118,1.085-0.178,1.627    c-0.01,0.087-0.019,0.174-0.029,0.261c-0.177,1.579-0.351,3.16-0.523,4.745c-0.138,1.263-0.279,2.526-0.413,3.788    c-0.032,0.302-0.062,0.605-0.094,0.907c-5.841,55.303-8.382,109.711-8.332,161.889c-0.191,49.18,1.7,94.963,5.143,131.704    C119.516,412.472,116.497,421.234,113.459,431.882z M348.869,493.937H161.136v-17.067h187.733V493.937z M366.409,438.534    c-0.12,0.956-0.217,1.714-0.29,2.269l-6.334,19.001h-2.383h-204.8h-2.383l-6.334-19.001c-0.073-0.555-0.171-1.313-0.29-2.269    c-0.319-2.552-0.676-5.569-1.06-9.034c-1.102-9.926-2.204-21.43-3.234-34.372c-3.052-38.356-4.783-78.905-4.821-120.912    c0.102-25.651,0.777-52.241,2.1-78.945h118.421c0,0,0.001,0,0.001,0s0.001,0,0.001,0h118.421    c1.321,26.805,1.993,53.444,2.094,79.109c-0.041,42.009-1.77,82.471-4.816,120.748c-1.03,12.942-2.133,24.446-3.234,34.372    C367.085,432.965,366.728,435.982,366.409,438.534z M387.449,406.027c3.44-36.704,5.33-82.43,5.143-131.553    c0.055-52.038-2.467-106.294-8.27-161.448c-0.057-0.541-0.11-1.083-0.168-1.625c-0.142-1.336-0.292-2.675-0.438-4.012    c-0.129-1.19-0.26-2.378-0.393-3.565c-0.101-0.906-0.195-1.813-0.298-2.719c0.077-1.197,0.332-3.218,0.891-5.797    c1.098-5.068,2.971-10.131,5.773-14.8c0.398-0.664,0.818-1.31,1.248-1.948c0.114-0.168,0.23-0.334,0.346-0.5    c0.353-0.507,0.716-1.005,1.09-1.494c0.103-0.134,0.203-0.271,0.307-0.405c0.473-0.603,0.962-1.194,1.469-1.769    c0.086-0.097,0.176-0.19,0.262-0.287c0.432-0.481,0.877-0.951,1.334-1.411c0.143-0.144,0.287-0.288,0.432-0.43    c0.502-0.49,1.016-0.97,1.547-1.436c0.054-0.047,0.105-0.097,0.159-0.143c0.497-0.431,1.017-0.842,1.54-1.251    c0.624,1.046,1.288,2.294,1.978,3.734c3.128,6.532,6.481,16.34,9.856,28.893c6.857,25.502,13.501,61.129,18.884,101.49    c11.657,87.398,15.847,182.472,9.89,256.251h-36.479c-0.288-1.293-0.593-2.642-0.915-4.041    c-1.871-8.128-3.922-16.261-6.096-23.881C393.507,421.234,390.488,412.472,387.449,406.027z M408.602,493.937v-17.066h25.6v17.066    H408.602z" transform="matrix(0.07812438905239105 0 0 0.07812438905239105 155 330)" id="L1_284" fill="#99f7f3"/><path d="M417.248,42.08c-2.268-5.7-7.097-8.961-13.563-9.434L312.917-0.361c-0.036-0.015-0.075-0.026-0.111-0.04l-0.244-0.089    c-0.027-0.01-0.054-0.016-0.081-0.025c-0.17-0.06-0.339-0.12-0.512-0.168c-0.073-0.02-0.147-0.036-0.22-0.055    c-0.033-0.008-0.066-0.013-0.099-0.021c-0.211-0.05-0.422-0.099-0.636-0.133c-0.015-0.002-0.03-0.003-0.045-0.005    c-0.018-0.003-0.036-0.004-0.053-0.006c-0.086-0.012-0.172-0.02-0.259-0.03c-0.271-0.031-0.541-0.049-0.812-0.054    c-0.008,0-0.016,0-0.023,0c-0.043-0.001-0.084-0.008-0.128-0.008H192.186c-0.044,0-0.085,0.008-0.128,0.008    c-0.008,0-0.015,0-0.023,0c-0.271,0.004-0.542,0.023-0.812,0.054c-0.087,0.01-0.173,0.017-0.259,0.03    c-0.021,0.003-0.041,0.004-0.062,0.007c-0.012,0.002-0.024,0.002-0.036,0.004c-0.214,0.034-0.426,0.083-0.638,0.133    c-0.032,0.008-0.064,0.012-0.095,0.02c-0.074,0.018-0.149,0.035-0.223,0.055c-0.173,0.048-0.342,0.109-0.512,0.169    c-0.027,0.009-0.054,0.015-0.08,0.025l-0.244,0.089c-0.036,0.015-0.075,0.025-0.111,0.04L98.197,32.645    c-6.469,0.472-11.3,3.737-13.567,9.442c-1.447,3.641-1.628,6.328-1.572,13.567c0.008,1.06,0.011,1.518,0.011,2.105V376.71    c0,13.908,11.276,25.18,25.18,25.18h20.707c2.804,0,5.503-0.464,8.029-1.314l-3.543,76.466c-0.136,2.942,1.28,5.741,3.731,7.374    l5.859,3.903c29.704,19.809,68.531,19.368,97.79-1.107c1.086-0.76,1.976-1.766,2.599-2.936l7.521-14.146l7.521,14.146    c0.622,1.17,1.513,2.177,2.599,2.936c29.259,20.475,68.086,20.917,97.794,1.105l5.855-3.901c2.451-1.633,3.867-4.431,3.731-7.374    l-3.542-76.465c2.524,0.849,5.222,1.313,8.025,1.313h20.707c13.91,0,25.18-11.27,25.18-25.18V57.759    c0-0.591,0.003-1.052,0.011-2.119C418.877,48.405,418.696,45.72,417.248,42.08z M346.282,361.491l-36.584,5.683v-16.618    l35.813-5.729l0.292,6.295L346.282,361.491z M312.743,72.62l13.38,11.053L241.1,171.997l17.347-34.672    c0.007-0.015,0.012-0.031,0.02-0.045l0.052-0.111c0.009-0.02,0.022-0.036,0.031-0.056l53.692-115.3l30.789,30.789l-26.589,5.318    C309.509,59.305,307.292,68.118,312.743,72.62z M185.439,57.919l-26.589-5.318l30.789-30.789l17.136,36.799l34.835,74.806    l-6.485,12.969l-59.42-62.669l13.433-11.096C194.589,68.118,192.372,59.305,185.439,57.919z M250.93,113.661l-45.575-97.869    h91.169L250.93,113.661z M156.371,344.828l35.817,5.734v16.618l-36.589-5.688L156.371,344.828z M128.955,385.103h-20.707    c-4.634,0-8.393-3.758-8.393-8.393V66.616l1.833,5.293l23.493,67.847c3.377,14.237,6.247,28.659,8.608,43.214    c5.313,32.77,8.033,66.206,8.033,99.717c0,12.153-0.356,24.311-1.068,36.439l-3.416,58.073    C137.078,381.64,133.403,385.103,128.955,385.103z M229.572,474.561c-23.391,15.415-53.823,15.4-77.231-0.21l-1.911-1.273    l4.388-94.719l44.474,6.914c5.088,0.791,9.683-3.144,9.683-8.294v-33.574c0-4.123-2.995-7.636-7.067-8.288l-44.756-7.165    l0.368-7.946c0.726-12.356,1.092-24.833,1.092-37.32c0-34.734-2.85-69.383-8.489-103.606c-2.431-14.761-5.372-29.445-8.84-44.021    l-23.385-67.6l-7.408-21.422l49.002-17.819l-23.603,23.603c-4.74,4.74-2.285,12.851,4.289,14.165l24.661,4.932l-6.755,5.58    c-3.748,3.096-4.09,8.719-0.745,12.246l69.799,73.614l-22.488,44.971l-3.209,6.414c-1.114,2.227-1.183,4.406-0.567,6.294    l2.549,14.248h-2.867c0-4.636-3.758-8.393-8.393-8.393s-8.393,3.758-8.393,8.393c-4.636,0-8.393,3.758-8.393,8.393    c0,4.636,3.758,8.393,8.393,8.393c0,4.636,3.758,8.393,8.393,8.393s8.393-3.758,8.393-8.393h5.869l7.507,41.967h-4.983    c0-4.636-3.758-8.393-8.393-8.393s-8.393,3.758-8.393,8.393c-4.636,0-8.393,3.758-8.393,8.393c0,4.636,3.758,8.393,8.393,8.393    c0,4.636,3.758,8.393,8.393,8.393s8.393-3.758,8.393-8.393h7.986l25.231,141.045L229.572,474.561z M349.543,474.349    c-23.411,15.612-53.843,15.628-77.234,0.213l-13.338-25.086L233.99,309.828h8.534c0,4.636,3.758,8.393,8.393,8.393    s8.393-3.758,8.393-8.393c4.636,0,8.393-3.758,8.393-8.393c0-4.636-3.758-8.393-8.393-8.393c0-4.636-3.758-8.393-8.393-8.393    s-8.393,3.758-8.393,8.393h-11.537l-7.507-41.967h10.651c0,4.636,3.758,8.393,8.393,8.393s8.393-3.758,8.393-8.393    c4.636,0,8.393-3.758,8.393-8.393c0-4.636-3.758-8.393-8.393-8.393c0-4.636-3.758-8.393-8.393-8.393s-8.393,3.758-8.393,8.393    h-13.654l-2.513-14.05L344.497,88.791c3.389-3.52,3.066-9.18-0.701-12.292l-6.755-5.58l24.661-4.932    c6.574-1.315,9.029-9.425,4.289-14.165l-23.603-23.603l48.999,17.818l-30.55,88.219c-7.669,32.094-12.794,64.347-15.441,96.7    c-0.717,8.77-1.255,17.547-1.606,26.331c-0.203,5.073-0.353,10.147-0.434,15.224c-0.054,3.391-0.087,6.783-0.087,10.176    c0,12.487,0.366,24.964,1.097,37.423l0.363,7.842l-44.75,7.158c-4.072,0.651-7.068,4.164-7.068,8.288v33.574    c0,5.149,4.594,9.084,9.682,8.294l44.471-6.908l4.388,94.72L349.543,474.349z M393.629,385.103h-20.707    c-4.446,0-8.118-3.463-8.383-7.91l-3.415-58.051c-0.141-2.405-0.257-4.804-0.37-7.203c-0.029-0.625-0.069-1.249-0.096-1.873    c-0.263-5.976-0.437-11.938-0.528-17.896c-0.002-0.122-0.006-0.243-0.008-0.365c-0.045-3.04-0.067-6.078-0.067-9.118    c0-3.234,0.029-6.466,0.08-9.698c0.122-7.779,0.4-15.551,0.814-23.314c0.274-5.146,0.612-10.286,1.014-15.422    c2.512-32.082,7.503-63.946,14.969-95.299l25.09-72.361V376.71C402.022,381.349,398.268,385.103,393.629,385.103z" transform="matrix(0.09923037141561508 0 0 0.09923037141561508 62.5 237.5)" id="L1_285" fill="#6f7bf7"/><g transform="matrix(0.13206017156295854 -0.03538541632261026 0.03538541632261026 0.13206017156295854 132.07945942100773 150.24043294702142)" id="L1_286"><circle cx="75" cy="161" r="8" fill="#99f7f3"/><circle cx="127" cy="161" r="8" fill="#99f7f3"/><circle cx="178" cy="161" r="8" fill="#99f7f3"/><circle cx="229" cy="161" r="8" fill="#99f7f3"/><circle cx="280" cy="161" r="8" fill="#99f7f3"/><circle cx="331" cy="161" r="8" fill="#99f7f3"/><circle cx="383" cy="161" r="8" fill="#99f7f3"/><circle cx="434" cy="161" r="8" fill="#99f7f3"/><path d="M485.4,118.368H24.6c-14.142,0-25.6,11.458-25.6,25.6v51.2v96.376v57.225c0,14.142,11.458,25.6,25.6,25.6h57.225H152.6     h0.683h39.721l2.625,1.498c1.335,0.763,2.683,1.489,4.039,2.197c0.398,0.208,0.799,0.406,1.2,0.609     c1.025,0.52,2.056,1.026,3.092,1.515c0.37,0.174,0.74,0.349,1.111,0.519c1.329,0.611,2.666,1.199,4.012,1.759     c0.034,0.014,0.068,0.03,0.103,0.044c33.936,14.069,72.808,11.86,105.191-6.644l2.621-1.495H357.4h74.291H485.4     c14.142,0,25.6-11.458,25.6-25.6v-153.6v-51.2C511,129.826,499.542,118.368,485.4,118.368z M16.067,143.968     c0-4.716,3.817-8.533,8.533-8.533h460.8c4.716,0,8.533,3.817,8.533,8.533v42.667H383h-42.667h-0.768H238.701h-69.035H95.375     H16.067V143.968z M493.225,203.702c-4.063,24.215-25.122,42.667-50.492,42.667s-46.43-18.451-50.492-42.667H493.225z      M328.198,203.702c-6.619,15.189-21.744,25.6-39.064,25.6s-32.446-10.411-39.064-25.6H328.198z M16.067,203.702h68.82     c-0.359,2.822-0.553,5.669-0.553,8.533c0,37.688,30.541,68.243,68.224,68.266l-4.897,48.974l-2.783,27.827H92.314     c0.359-2.822,0.553-5.669,0.553-8.533c0-37.703-30.564-68.267-68.267-68.267c-2.866,0-5.712,0.193-8.533,0.552V203.702z      M154.268,263.401c-0.562,0.022-1.117,0.034-1.667,0.034c-28.277,0-51.2-22.923-51.2-51.2c0-2.868,0.245-5.718,0.727-8.533     h58.111L154.268,263.401z M24.6,357.302c-4.712,0-8.533-3.82-8.533-8.533v-50.474c2.814-0.481,5.662-0.726,8.533-0.726     c28.277,0,51.2,22.923,51.2,51.2c0,2.868-0.245,5.718-0.727,8.533H24.6z M195.267,357.302h-31.149     c7.059-20.034,26.126-34.133,48.216-34.133c28.184,0,51.049,22.772,51.199,50.921c-15.478,1.309-30.989-0.866-45.398-6.387     c-0.03-0.011-0.059-0.023-0.089-0.035c-1.064-0.409-2.12-0.841-3.171-1.286c-0.229-0.097-0.458-0.194-0.686-0.293     c-0.861-0.372-1.716-0.761-2.567-1.157c-0.32-0.149-0.641-0.295-0.96-0.448c-0.794-0.38-1.582-0.777-2.368-1.178     c-0.326-0.167-0.654-0.326-0.978-0.496c-1.076-0.565-2.145-1.146-3.203-1.751c-0.007-0.004-0.013-0.007-0.02-0.011l-4.595-2.622     C198.208,357.688,196.75,357.302,195.267,357.302z M314.733,357.302c-1.483,0-2.941,0.387-4.229,1.122l-4.591,2.62     c-8.073,4.613-16.617,8.038-25.39,10.29c-1.589-36.293-31.505-65.231-68.19-65.231c-18.16,0-34.783,7.142-47.072,18.875     l5.29-52.898c0.003-0.027,0.009-0.053,0.012-0.081l6.827-68.296h54.557c7.403,24.912,30.411,42.667,57.186,42.667     c18.176,0,34.617-8.183,45.621-21.23l0.326,3.257l12.891,128.907H314.733z M365.123,357.302l-5.741-57.444     c4.857-1.51,9.92-2.29,15.085-2.29c28.277,0,51.2,22.923,51.2,51.2c0,2.868-0.245,5.718-0.727,8.533H365.123z M493.933,348.768     c0,4.716-3.817,8.533-8.533,8.533h-43.22c0.359-2.822,0.553-5.669,0.553-8.533c0-37.703-30.564-68.267-68.267-68.267     c-5.725,0-11.356,0.736-16.811,2.131l-7.893-78.931h25.254c4.202,33.672,32.906,59.733,67.717,59.733     c20.396,0,38.691-8.956,51.2-23.137V348.768z" fill="#99f7f3"/></g><g transform="matrix(0.0390625 0 0 0.0390625 252.5 340)" id="L1_287"><circle cx="75" cy="161" r="8" fill="#6f7bf7"/><circle cx="127" cy="161" r="8" fill="#6f7bf7"/><circle cx="178" cy="161" r="8" fill="#6f7bf7"/><circle cx="229" cy="161" r="8" fill="#6f7bf7"/><circle cx="280" cy="161" r="8" fill="#6f7bf7"/><circle cx="331" cy="161" r="8" fill="#6f7bf7"/><circle cx="383" cy="161" r="8" fill="#6f7bf7"/><circle cx="434" cy="161" r="8" fill="#6f7bf7"/><path d="M485.4,118.368H24.6c-14.142,0-25.6,11.458-25.6,25.6v51.2v153.6c0,14.142,11.458,25.6,25.6,25.6h128h40.403l2.625,1.498     c36.529,20.874,81.322,21.009,117.971,0.424c0.255-0.134,0.504-0.271,0.772-0.424c0.002-0.001,0.003-0.002,0.005-0.003     l2.621-1.495H357.4h128c14.142,0,25.6-11.458,25.6-25.6v-153.6v-51.2C511,129.826,499.542,118.368,485.4,118.368z      M16.067,143.968c0-4.716,3.817-8.533,8.533-8.533h460.8c4.716,0,8.533,3.817,8.533,8.533v42.667h-153.6H169.667h-153.6V143.968z      M144.877,357.302h-5.809L16.067,234.3v-30.599h144.171L147.66,329.475L144.877,357.302z M87.868,357.302L16.067,285.5v-27.064     l98.865,98.865H87.868z M16.067,348.768v-39.132l47.665,47.665H24.6C19.883,357.302,16.067,353.485,16.067,348.768z      M204.091,361.046l-4.595-2.622c-1.288-0.735-2.746-1.122-4.229-1.122h-33.237l15.36-153.6h155.222l2.469,24.693l5.296,52.959     c-24.288,4.404-42.709,25.641-42.709,51.201v32.708C267.789,378.929,232.938,377.529,204.091,361.046z M314.733,357.302v-24.747     c0-16.702,11.697-30.666,27.348-34.151l5.89,58.897H314.733z M493.933,348.768c0,4.716-3.817,8.533-8.533,8.533H365.123     l-15.36-153.6h144.171V348.768z" fill="#6f7bf7"/></g></defs><g fi:class="KUsePattern"><pattern id="pattern_L1_278" width="350" height="350" patternUnits="userSpaceOnUse"><use xlink:href="#L1_278" x="-350" y="-350"/><use xlink:href="#L1_278" x="0" y="-350"/><use xlink:href="#L1_278" x="350" y="-350"/><use xlink:href="#L1_278" x="-350" y="0"/><use xlink:href="#L1_278" x="0" y="0"/><use xlink:href="#L1_278" x="350" y="0"/><use xlink:href="#L1_278" x="-350" y="350"/><use xlink:href="#L1_278" x="0" y="350"/><use xlink:href="#L1_278" x="350" y="350"/></pattern><rect x="0" y="0" width="100%" height="100%" fill="url(#pattern_L1_278)"/></g><g fi:class="KUsePattern"><pattern id="pattern_L1_279" width="350" height="350" patternUnits="userSpaceOnUse"><use xlink:href="#L1_279" x="-350" y="-350"/><use xlink:href="#L1_279" x="0" y="-350"/><use xlink:href="#L1_279" x="350" y="-350"/><use xlink:href="#L1_279" x="-350" y="0"/><use xlink:href="#L1_279" x="0" y="0"/><use xlink:href="#L1_279" x="350" y="0"/><use xlink:href="#L1_279" x="-350" y="350"/><use xlink:href="#L1_279" x="0" y="350"/><use xlink:href="#L1_279" x="350" y="350"/></pattern><rect x="0" y="0" width="100%" height="100%" fill="url(#pattern_L1_279)"/></g><g fi:class="KUsePattern"><pattern id="pattern_L1_280" width="350" height="350" patternUnits="userSpaceOnUse"><use xlink:href="#L1_280" x="-350" y="-350"/><use xlink:href="#L1_280" x="0" y="-350"/><use xlink:href="#L1_280" x="350" y="-350"/><use xlink:href="#L1_280" x="-350" y="0"/><use xlink:href="#L1_280" x="0" y="0"/><use xlink:href="#L1_280" x="350" y="0"/><use xlink:href="#L1_280" x="-350" y="350"/><use xlink:href="#L1_280" x="0" y="350"/><use xlink:href="#L1_280" x="350" y="350"/></pattern><rect x="0" y="0" width="100%" height="100%" fill="url(#pattern_L1_280)"/></g><g fi:class="KUsePattern"><pattern id="pattern_L1_281" width="350" height="350" patternUnits="userSpaceOnUse"><use xlink:href="#L1_281" x="-350" y="-350"/><use xlink:href="#L1_281" x="0" y="-350"/><use xlink:href="#L1_281" x="350" y="-350"/><use xlink:href="#L1_281" x="-350" y="0"/><use xlink:href="#L1_281" x="0" y="0"/><use xlink:href="#L1_281" x="350" y="0"/><use xlink:href="#L1_281" x="-350" y="350"/><use xlink:href="#L1_281" x="0" y="350"/><use xlink:href="#L1_281" x="350" y="350"/></pattern><rect x="0" y="0" width="100%" height="100%" fill="url(#pattern_L1_281)"/></g><g fi:class="KUsePattern"><pattern id="pattern_L1_282" width="350" height="350" patternUnits="userSpaceOnUse"><use xlink:href="#L1_282" x="-350" y="-350"/><use xlink:href="#L1_282" x="0" y="-350"/><use xlink:href="#L1_282" x="350" y="-350"/><use xlink:href="#L1_282" x="-350" y="0"/><use xlink:href="#L1_282" x="0" y="0"/><use xlink:href="#L1_282" x="350" y="0"/><use xlink:href="#L1_282" x="-350" y="350"/><use xlink:href="#L1_282" x="0" y="350"/><use xlink:href="#L1_282" x="350" y="350"/></pattern><rect x="0" y="0" width="100%" height="100%" fill="url(#pattern_L1_282)"/></g><g fi:class="KUsePattern"><pattern id="pattern_L1_283" width="350" height="350" patternUnits="userSpaceOnUse"><use xlink:href="#L1_283" x="-350" y="-350"/><use xlink:href="#L1_283" x="0" y="-350"/><use xlink:href="#L1_283" x="350" y="-350"/><use xlink:href="#L1_283" x="-350" y="0"/><use xlink:href="#L1_283" x="0" y="0"/><use xlink:href="#L1_283" x="350" y="0"/><use xlink:href="#L1_283" x="-350" y="350"/><use xlink:href="#L1_283" x="0" y="350"/><use xlink:href="#L1_283" x="350" y="350"/></pattern><rect x="0" y="0" width="100%" height="100%" fill="url(#pattern_L1_283)"/></g><g fi:class="KUsePattern"><pattern id="pattern_L1_284" width="350" height="350" patternUnits="userSpaceOnUse"><use xlink:href="#L1_284" x="-350" y="-350"/><use xlink:href="#L1_284" x="0" y="-350"/><use xlink:href="#L1_284" x="350" y="-350"/><use xlink:href="#L1_284" x="-350" y="0"/><use xlink:href="#L1_284" x="0" y="0"/><use xlink:href="#L1_284" x="350" y="0"/><use xlink:href="#L1_284" x="-350" y="350"/><use xlink:href="#L1_284" x="0" y="350"/><use xlink:href="#L1_284" x="350" y="350"/></pattern><rect x="0" y="0" width="100%" height="100%" fill="url(#pattern_L1_284)"/></g><g fi:class="KUsePattern"><pattern id="pattern_L1_285" width="350" height="350" patternUnits="userSpaceOnUse"><use xlink:href="#L1_285" x="-350" y="-350"/><use xlink:href="#L1_285" x="0" y="-350"/><use xlink:href="#L1_285" x="350" y="-350"/><use xlink:href="#L1_285" x="-350" y="0"/><use xlink:href="#L1_285" x="0" y="0"/><use xlink:href="#L1_285" x="350" y="0"/><use xlink:href="#L1_285" x="-350" y="350"/><use xlink:href="#L1_285" x="0" y="350"/><use xlink:href="#L1_285" x="350" y="350"/></pattern><rect x="0" y="0" width="100%" height="100%" fill="url(#pattern_L1_285)"/></g><g fi:class="KUsePattern"><pattern id="pattern_L1_286" width="350" height="350" patternUnits="userSpaceOnUse"><use xlink:href="#L1_286" x="-350" y="-350"/><use xlink:href="#L1_286" x="0" y="-350"/><use xlink:href="#L1_286" x="350" y="-350"/><use xlink:href="#L1_286" x="-350" y="0"/><use xlink:href="#L1_286" x="0" y="0"/><use xlink:href="#L1_286" x="350" y="0"/><use xlink:href="#L1_286" x="-350" y="350"/><use xlink:href="#L1_286" x="0" y="350"/><use xlink:href="#L1_286" x="350" y="350"/></pattern><rect x="0" y="0" width="100%" height="100%" fill="url(#pattern_L1_286)"/></g><g fi:class="KUsePattern"><pattern id="pattern_L1_287" width="350" height="350" patternUnits="userSpaceOnUse"><use xlink:href="#L1_287" x="-350" y="-350"/><use xlink:href="#L1_287" x="0" y="-350"/><use xlink:href="#L1_287" x="350" y="-350"/><use xlink:href="#L1_287" x="-350" y="0"/><use xlink:href="#L1_287" x="0" y="0"/><use xlink:href="#L1_287" x="350" y="0"/><use xlink:href="#L1_287" x="-350" y="350"/><use xlink:href="#L1_287" x="0" y="350"/><use xlink:href="#L1_287" x="350" y="350"/></pattern><rect x="0" y="0" width="100%" height="100%" fill="url(#pattern_L1_287)"/></g></svg>