<svg xmlns="http://www.w3.org/2000/svg" xmlns:xlink="http://www.w3.org/1999/xlink" xmlns:fi="http://pattern.flaticon.com/" x="0" y="0" width="1920" height="1080" viewBox="0 0 1920 1080"><rect x="0px" y="0px" width="100%" height="100%" opacity="1" fill="#e8f0f7"/><defs><g transform="matrix(0.10256410390138626 0 0 0.10256410390138626 77.5 340)" id="L1_81"><path d="m155.6 63c2.2-.6 3.7-2.7 3.7-5 0-.4 0-.8 0-1.2-.1-10.4-.1-20.8 0-31.3 0-2.2-1.8-4-4-4-38.3.1-76.7 0-115 0-4.3 0-4.6.2-4.6 4.6 0 10.3 0 20.6-.1 30.8v1.1c0 2.6.8 4.3 3.5 4.7 1.5.3 2.4.8 2.6 2.1v1.2c-1.1 8.9-1.9 17.9-3.1 26.8-2.3 16.8-3.5 33.7-2.8 50.7 0 .1 0 .3.1.4.5 2 3.5 1.9 3.9-.1 0-.1.1-.3.1-.4.2-6.1.1-12.2.1-18.2 0-1 .2-1.9.3-2.9 4.2.3 5.7 1.9 5.1 6.5v16c.4 1.7-1.4 5.6 2 5.6s2.1-3.3 2.1-5.3c.2-6.5.1-13 .1-19.5 4.2.1 6 1.7 5.5 5.7-.3 2.2-.1 4.4-.1 6.7 0 4.4-.1 8.9.1 13.3 0 .2.1.4.2.5.7 1.4 2.7 1.3 3.5 0 .1-.2.2-.4.3-.7.3-.9.1-2.1.1-3.1v-19c4.2 0 5.4 1.7 5.3 5.3-.3 6.4-.2 12.9.1 19.3v.4c.4 1.8 3.1 2.1 3.9.4.1-.3.3-.6.4-.9.3-.8 0-1.8 0-2.8v-18.2c5.1.5 5.3.8 5.3 5.2 0 6.6-.1 13.1.1 19.6 0 .2.1.5.2.7.7 1.5 2.9 1.6 3.6.1.1-.2.1-.4.2-.6.1-9.7.4-19.4-.3-29.1-1.1-15.4-3-30.7-4.5-46-.3-3.1-.6-6.2-.8-9.6 7.1 1.1 15.4 1.9 24.6 1.9 7.4 0 15.4-.5 23.9-1.8-1.3 11.6-2.6 22.5-3.8 33.5-2.3 21-5.4 42-4.2 63.2.1 1.4 1.2 3.9 2 4 2.5.2 2.2-2.1 2.2-3.8 0-6.2 0-12.4 0-18.6 0-4.8.9-5.6 6.3-5.2 0 7.1-.1 14.2.1 21.3v.4c.4 2 3.3 2 3.9.1 0-.2.1-.4.1-.5.2-6.2.1-12.4.1-18.6 0-5.3.1-5.4 6.1-5.8.1 1.1.1 2.3.1 3.4 0 5.7-.1 11.5.1 17.2.1 1.6 1.3 4.3 2 4.4 2.7.1 2.2-2.4 2.2-4.2.1-5.8 0-11.7 0-17.5 0-5.6 0-5.6 6-6.2.1 1.1.2 2.3.2 3.4 0 6-.1 11.9.1 17.9 0 .1 0 .3.1.4.5 2 3.5 2 3.9 0 0-.1.1-.3.1-.4.2-6.1.1-12.2 0-18.2 0-5.6.1-5.7 6.1-6 .1 1.3.2 2.5.2 3.8 0 6.1-.1 12.2.1 18.2 0 .3.1.6.4.9.9 1.3 2.9 1.2 3.5-.2.1-.2.1-.4.1-.6 0-10 .5-20.2-.5-30.1-1.9-19.9-4.7-39.7-7.1-59.5-.3-2.1-.4-3.4-.1-4.2.3-1.3 1.4-1.6 4.1-2.4z" fill="#001b33"/><g fill="#bc4314"><path d="m60.7 53c-.3.8-2.7 1.3-4 1-5-.8-10-2-15.5-3.1v-4.6c.5.3 1.1.5 2 .6 0 0 10 1.7 13.2 2.6 1.3.8 5.4.3 4.3 3.5z" fill="#af51bf"/><path d="m61.5 38.3c-.1 0-.2.1-.3.1-5.8.2-11.7.1-17.5.2-.8 0-1.8-.1-2.5.1v-4.4c6.7 0 13.3-.1 19.9.1.1 0 .3 0 .4.1 1.9.4 1.9 3.4 0 3.8z" fill="#af51bf"/><path d="m153.3 34.3v4.1c-.8-.1-1.6.1-2.3.1-5.8-.1-11.7.1-17.5-.1-.1 0-.2 0-.3 0-1.7-.4-1.9-2.8-.4-3.7.2-.1.5-.3.7-.3 1.2-.4 2.5-.1 3.8-.1z" fill="#af51bf"/><path d="m151.7 47c.6-.1 1.2-.2 1.6-.4v4.4c-5.4 1.1-10.3 2.2-15.3 3.1-.1 0-.3 0-.4 0-2-.1-2.7-3-.9-3.9.1-.1.2-.1.3-.1 4.8-1.2 9.7-2.4 14.7-3.1z" fill="#af51bf"/><path d="m159.3 58c0 2.3-1.5 4.3-3.7 5-2.7.8-3.8 1.2-4.2 2.3-10.5 3.8-20.7 6.2-30.3 7.6-8.4 1.3-16.4 1.8-23.9 1.8-9.2 0-17.4-.8-24.6-1.9-.5-.1-1.1-.2-1.6-.3-12.5-2.1-22.6-5.2-29.3-7.7-.2-1.4-1.1-1.9-2.6-2.1-2.7-.5-3.5-2.1-3.5-4.7 0-.4 0-.7 0-1.1 8.6 4 62.3 26.5 123.5-.2.2.5.2.9.2 1.3z" fill="#af51bf"/></g></g><g transform="matrix(0.20512820780277252 0 0 0.20512820780277252 67.5 67.5)" id="L1_82"><path d="m130.4 172.4c.1.4.2.7.3 1.1-3.2-1-6.5-1.9-9.7-2.9-1-.3-1.9-.6-2.9-.9-3.9-1.1-7.8-2.3-11.8-3.5 9.6-38.2 6.2-77.4 6.7-115.7-1 .1-2 .2-3.1.4-3.9.5-7.9 1.1-12 1-4-.1-8-1.1-12.1-1.9-1-.2-2.1-.4-3.1-.6v.3c0 8.3-.4 16.9.1 25.4 1.4 22.9 3.3 45.8 5 68.7.6 8.8 1.1 17.6 1.7 26.4-4.8 1.3-9.6 1.5-14.3 1.4-1 0-2-.1-3-.1-5.3-.3-10.6-.9-15.9-.8-.2-1-.4-1.7-.4-2.5.5-30.2 2-60.3 6.7-90.1 1.4-8.8 3.2-17.6 6.4-25.9 0 0 0-.1.1-.1.7-1.9 1.8-3.7 3-5.5 2.3-3.4 5.2-6.6 7.4-10.1.4-.7.8-1.4 1.1-2.1.7-1.7 1.2-3.5 1.7-5.3.2-.7.5-1.5.8-2.1 1.9-3.7 5.9-6 10.2-5.5 5.5.6 11.1.9 16.5 2.4.1 0 .2 0 .2.1 1.1.3 2.2 1.1 3.2 2 1.2 1.1 2.3 2.4 3.1 3.6 1.6 2.4 2.6 5.2 3.9 7.8.5 1 1.1 2.1 1.8 3 .4.6.9 1.2 1.3 1.7 6.1 8.6 9.3 18.2 10.1 28.7 1.5 19 2.9 37.9 4 56.9.8 13.9 1.2 27.8 1.7 41.4-3.2 1.3-5.9 2.3-8.7 3.3z" fill="#001b33"/><g fill="#bc4314"><path d="m85.7 50c-1-.2-2.1-.4-3.1-.6v.3c-1-4.2-1.7-10-2.1-15.3.7-1.7 1.2-3.5 1.7-5.3.2-.7.5-1.5.8-2.1.5 9 1.5 18.3 2.7 23z" fill="#af51bf"/><path d="m112.9 50.6c-1 .1-2 .2-3.1.4 1.8-9.8.5-23 0-26.9 1.1.3 2.2 1.1 3.2 2 .7 5.3 1.4 15.7-.1 24.5z" fill="#af51bf"/><path d="m121 170.6c-1-.3-1.9-.6-2.9-.9 3.6-30.2 2.4-116.7 2.1-132.3.5 1 1.1 2.1 1.8 3 .4.6.9 1.2 1.3 1.7.3 24.2 1.2 100.5-2.3 128.5z" fill="#af51bf"/><path d="m75 171.6c-1 0-2-.1-3-.1-2.6-30.9-3-91.5-3-119.4.7-1.9 1.8-3.7 3-5.5 0 24.6.2 92.3 3 125z" fill="#af51bf"/></g></g><g transform="matrix(0.20512820780277252 0 0 0.20512820780277252 242.5 67.5)" id="L1_83"><path d="m96.3 25v32.1c0 1.9-1.5 3.5-3.5 3.5h-2.8c0 .6-.1 1.2-.1 1.8 0 15.9-.1 31.9 0 47.8.2 16-5 30-14.6 42.6-4.5 5.9-9.3 11.3-15.4 15.5-4.1 2.8-8.5 5-13.5 5.3-2.9.2-5.8-.3-8.8-.4-6.4-2.3-8.5-4.9-8.5-4.9-.8-.9-1.4-1.6-1.9-2.3-6.1-8.1-7.1-16.9-2.6-25.8 2.8-5.5 6.7-10.5 10.4-15.5 4.7-6.5 8.6-13.2 9.3-21.4.3-3.7.2-7.4.2-11.1 0-10.2 0-20.4 0-30.5 0-.4-.1-.7-.1-1.3h-2.3c-2.8 0-4-1.1-4-3.9 0-7 0-14.1 0-21.1 0-3.1 0-6.2 0-9.3 0-3.5 1.1-4.6 4.6-4.6h43.3 7c1.7 0 3.3 1.6 3.3 3.5z" fill="#001b33"/><g fill="#bc4314"><path d="m72.4 140.6c-3.7-4.3-5.1-10.5-3.8-17.1 1.4-7.2 5.7-13.5 11.4-16.4l4.2-2.2.2 4.7c.4 10.7-1.9 20.6-7 30.4l-2 3.9z" fill="#af51bf"/><path d="m89.8 28.6c-.1 3.2 0 6.3 0 9.5 0 .1-.1.2-.2.3h-45v-10.3h5.3 38.1c1 0 1.8-.1 1.8.5z" fill="#af51bf"/><path d="m89.8 43.7c-.1 3.3 0 6.5 0 9.8 0 .1-.1.2-.2.3h-45v-10.7h5.3 38.1c1 0 1.8 0 1.8.6z" fill="#af51bf"/></g><path d="m173.3 25v32.1c0 1.9-1.5 3.5-3.5 3.5h-2.8c0 .6-.1 1.2-.1 1.8 0 15.9-.1 31.9 0 47.8.2 16-5 30-14.6 42.6-4.5 5.9-9.3 11.3-15.4 15.5-4.1 2.8-8.5 5-13.5 5.3-2.9.2-5.8-.3-8.8-.4-6.4-2.3-8.5-4.9-8.5-4.9-.8-.9-1.4-1.6-1.9-2.3-6.1-8.1-7.1-16.9-2.6-25.8 2.8-5.5 6.7-10.5 10.4-15.5 4.7-6.5 8.6-13.2 9.3-21.4.3-3.7.2-7.4.2-11.1 0-10.2 0-20.4 0-30.5 0-.4-.1-.7-.1-1.3h-2.3c-2.8 0-4-1.1-4-3.9 0-7 0-14.1 0-21.1 0-3.1 0-6.2 0-9.3 0-3.5 1.1-4.6 4.6-4.6h43.3 7c1.7 0 3.3 1.6 3.3 3.5z" fill="#001b33"/><g fill="#bc4314"><path d="m149.4 140.6c-3.7-4.3-5.1-10.5-3.8-17.1 1.4-7.2 5.7-13.5 11.4-16.4l4.2-2.2.2 4.7c.4 10.7-1.9 20.6-7 30.4l-2 3.9z" fill="#af51bf"/><path d="m166.8 28.6c-.1 3.2 0 6.3 0 9.5 0 .1-.1.2-.2.3h-45v-10.3h5.3 38.1c1 0 1.8-.1 1.8.5z" fill="#af51bf"/><path d="m166.8 43.7c-.1 3.3 0 6.5 0 9.8 0 .1-.1.2-.2.3h-45v-10.7h5.3 38.1c1 0 1.8 0 1.8.6z" fill="#af51bf"/></g></g><g transform="matrix(0.10256410390138626 0 0 0.10256410390138626 252.5 340)" id="L1_84"><path d="m165.4 168.7c0 4.1-.8 4.8-4.8 4.8h-125.6c-5 0-5.5-.6-5.5-5.6 0-26.5 0-53 0-79.5 0-4.2.4-4.5 4.5-4.9 3.5-.3 6-2.3 7.9-4.9 5.2-6.9 6.8-15 7.3-23.4.4-7.8-.7-15.3-3.5-22.6-1-2.6-.2-4 2.6-4.6 9.5-2.2 19-4.2 28.4-6.4 2.2-.5 3.5.4 4.4 2.4 4.5 9.6 8.9 19.2 13.4 28.8.6 1.3 1.2 2.6 1.8 3.8.3.7.7 1.4 1.1 2.4 1-2.2 2-4.1 2.9-6.1.1-.3.3-.7.5-1 4.1-8.9 8.2-17.8 12.4-26.7 1.8-3.9 2.3-4.2 6.5-3.2 8.8 2 17.6 3.9 26.4 5.9 3.5.8 4.1 2 2.9 5.4-4.9 13.7-4.9 27.4 1.1 40.8 1.2 2.6 3.1 5.1 5.3 7.1 1.6 1.4 4 2.1 6.1 2.4 2.9.5 3.8 1.1 3.9 4.1v45.6z" fill="#001b33"/><path d="m165.4 125.2h-64.9v-72.2c-.9 1.9-1.9 3.9-2.9 6.1-.5-1-.8-1.7-1.1-2.4-.6-1.3-1.2-2.6-1.8-3.8h-.1v72.4h-65v8.2h65v40.1h5.9v-40.1h64.9z" fill="#af51bf"/></g><g transform="matrix(0.3589743673801422 0 0 0.3589743673801422 -33.999999452248574 140.00000054775137)" id="L1_85"><path d="m173.5 118.3v51.3c-1.5.8-2.9 2.1-4.5 2.2-5.8.3-11.7.1-17.5.1-4.8 0-5.2-.5-5.2-5.2 0-13.5 0-27 0-40.5 0-6-3.5-10.7-5.9-15.8-.4 14.8-.4 29.4-.4 44 0 4.8-.5 5.3-5.2 5.3-24.9 0-49.7 0-74.6 0-4.7 0-5.2-.5-5.2-5.3 0-13.6 0-27.2 0-40.8v-3.7c-4.3 6.3-6.3 12.7-6.3 19v38.5c0 3.9-.6 4.5-4.5 4.6-6.1 0-12.2.2-18.2-.1-1.5-.1-3-1.4-4.5-2.2 0 0 .4-51.6.4-51.8 5.2-15.7 9.9-31.5 15.6-46.9 4.4-11.8 12.6-20.3 25.1-24 3-.9 5.9-2 9.5-3.2-1.3-3.9-2.5-7.6-3.9-11.3-1.8-4.7-1.1-6 3.9-6.7 6.5-.9 13.1-1.8 19.7-2.7h11.5c.6.2 1.3.4 1.9.5 5.1.8 10.2 1.4 15.3 2.2 4.1.7 4.6 1.7 4 5.7-.4 2.9-.5 5.8-1.1 8.7s.5 4.1 3.2 4.9c7.1 2.1 14.1 4.3 19.8 9.6 6.1 5.8 10.3 12.7 12.9 20.6 4.7 14.3 9.5 28.7 14.2 43z" fill="#001b33"/><path d="m77.4 31.4c13-2.7 25.6-3.2 39-.4-2.1 1.6-4.1 2.5-5.4 4.1-1.8 2-3.9 4.2-4.7 6.7-3.2 10.6-5.9 21.4-8.9 32.5-2.2-8.5-4.5-16.5-6.2-24.8s-4.6-15.4-13.8-18.1z" fill="#af51bf"/></g><g transform="matrix(0.34674261242825943 -0.09290940298160988 0.09290940298160988 0.34674261242825943 129.7510501169048 150.60278396191455)" id="L1_86"><path d="m173.3 129.7c-3.4 2.8-7.6 4.7-11.5 6.8-.4.2-1.5-.4-1.9-.8-6-6.8-14-11.8-17.5-20.9-1.9-5-5.4-9.5-8.1-14.2-.8.2-.7.2-1.5.4 0 9.9.3 19.9-.2 29.7-.2 3.1-2.6 6.1-4.1 9.2-1.1 2.4-2.3 4.7-3.8 8h-52.8c-2.6-3.8-5-6.8-6.7-10.1-1.2-2.2-1.9-4.9-2-7.3-.2-9.9-.1-19.8-.1-29.7-.8-.2-.7-.2-1.4-.4-3.5 6-6.9 12.1-10.5 18.1-3 4.8-4.7 10.9-11.5 12.2-.3.1-.6.5-.8.7-1.7 1.7-4.1 5.3-5 4.9-4.1-1.6-7.9-4.2-11.7-6.5-.5-.3-.8-1.4-.6-2 1.9-6.6 3.2-13.6 6.2-19.7 5.7-11.3 12.6-22.1 18.9-33.2 4.7-8.3 11.5-13.4 20.9-15.6 8-1.9 10.4-3.7 11-9.8.1-1.4 1.9-2 2.8-.9 3.9 4.5 9.9 11.9 15.8 21.3 0 0 .4-.4.9-.9.8-.8 1.5-1.6 2.1-2.5 1-1.5 1.9-3 2.9-4.4 3.5-4.7 8-10.4 11.3-14.3.9-1 2.4-.6 2.8.7 1.9 7.3 7.3 11.2 17 13.3 5.3 1.2 10.6 7.1 13.9 12.1 8 12.2 14.9 25.1 22 37.8 1.3 2.3 1.3 5.3 1.8 8 .2 1.1-.1 2.2.1 3.3.4 2.3 2.1 6 1.3 6.7z" fill="#001b33"/><g fill="#bc4314"><circle cx="97" cy="81" r="3" fill="#af51bf"/><circle cx="97" cy="97" r="3" fill="#af51bf"/></g></g><g transform="matrix(0.25641027092933655 0 0 0.25641027092933655 62.5 237.5)" id="L1_87"><path d="m155.3 58.6c-1-5.2-4.4-10-7.9-14.6-1-1.4-2.2-2.7-3.5-3.8-3.4-3.1-7.5-5.4-12-6.7l-9.6-2.7c-2.2-3.2-5.2-7.3-6-8.5h-37.9c-1.2 1.6-4 5.5-6.2 8.5l-20.4 10.1c-6 2.1-11.5 12.2-13 19.7-4.9 23.3-7.8 47.1-11.4 70.7-2 13.3-3.9 26.6-5.9 39.9 19.4 1.7 19.4 1.7 23.2-14.4 5.1-21.4 10.1-42.8 15.1-64.2.1-.5.3-1.1.6-1.5l3.4-6.2-1.2 7.3c-1.5 26-3.1 51.9-4.8 80.3h.1v.1h29.4l28.1-.1c6.8.4 14-.1 21.7-.1-1.9-29.7-3.6-57.2-5.3-84.7 7.4 22.8 12.8 45.9 18.2 69.1 4 17.3 5.6 18.2 23.6 13-6-37.1-11.3-74.3-18.3-111.2z" fill="#001b33"/><path d="m143.9 40.2c-1.3-.4-2.8-.5-4.4-.5-4.9 0-10.1 1.4-10.1 1.4-.5.1-1 .3-1.5.4-12.4 2.6-26 16.7-26.2 29.6-.5 30.5-.4 61.1.2 91.6.1 3.3 4.9 8.7 8.1 9.2 1.7.3 3.5.4 5.2.6l-28.1.1h-3.1.1c7-1.1 9.7-6 9.4-15.8-.8-26.5-.6-53.1-.2-79.7.2-13.9-6.4-24.5-16.8-31.3-6.8-4.4-17.8-7.3-24.7-4.9l20.4-10.1 25 23.3 25.1-23.2 9.6 2.7c4.5 1.2 8.6 3.5 12 6.6z" fill="#af51bf"/></g><g transform="matrix(0.4615384638309479 0 0 0.4615384638309479 217.5 217.5)" id="L1_88"><path d="m140.6 169.1c0 .8-.1 1.7-.1 2.6-.1 1.1-.4 1.5-1.5 1.5-2.8.1-5.6.2-8.5.3-6.4 0-12.8 0-19.2 0-1.3 0-2.1-.5-2.4-1.8-.4-1.8-.8-3.5-1.1-5.3-1.5-9.6-3-19.2-4.5-28.9-1.3-8.5-2.6-17.1-3.9-25.6-.6-3.5-1.1-7-1.7-10.6 0-.1-.1-.2-.1-.4h-.2c-.6 4-1.3 7.9-1.9 11.9-1 6.6-2 13.2-3 19.8-1.1 7.4-2.2 14.7-3.3 22.1-.8 5.4-1.8 10.8-2.6 16.2-.2 1.1-.8 1.8-1.6 2.3-.2.1-.5.2-.7.2-8.9 0-17.9-.1-26.8-.2-2.6 0-2.8-.2-2.9-2.8-.1-4 0-7.9.1-11.9.2-7.7.6-15.4.9-23.2.3-8.3.7-16.6 1-24.9.3-7.1.6-14.1.8-21.2.3-8.5.7-17.1 1-25.6.2-6.1.5-12.1.7-18.2.2-6.3.4-12.6.6-18.9 0-1 0-2.1.1-3.2.1-1.3 1.2-2.2 2.4-2.2h70.6c1.2 0 2.2.9 2.4 2 .1.6.1 1.2.1 1.9.3 9.1.6 18.1.9 27.2.3 8.6.6 17.1 1 25.7.3 7.2.6 14.3.9 21.5.3 8.3.7 16.7 1 25 .3 8.6.7 17.1 1 25.7.2 6.5.3 12.8.5 19z" fill="#001b33"/><g fill="#bc4314"><path d="m64 58.1c.1-2.7.2-5.4.3-8 .1-3.6.3-7.3.4-10.9.1-1.6-.1-1.4 1.4-1.4 4.5 0 8.9 0 13.4.1h1c-.3 5.5-10.1 17.5-16.5 20.2z" fill="#af51bf"/><path d="m65.1 27h64.8v5.3h-64.8z" fill="#af51bf"/><path d="m129.4 37.7c.5 0 .8 0 .8.6.2 6.5.5 12.9.8 19.4v.5c-7.9-5-13.8-11.3-16.6-20.3.3 0 .5-.1.7-.1 4.7 0 9.5 0 14.3-.1z" fill="#af51bf"/><path d="m59.8 162.5h22.6c-.2 1.3-.4 2.6-.6 3.9-.1.5-.2 1.1-.3 1.6h-21.9c0-.3 0-.5 0-.8.1-1.5.2-3.1.2-4.7z" fill="#af51bf"/><path d="m135.3 166.9c0 .8-.2 1-.9 1-4 0-8 .1-11.9.1h-1.5c-2.3 0-4.5 0-6.8 0-.6 0-.9-.2-1-.8-.2-1.6-.5-3.1-.7-4.7h22.6c.1 1.5.1 2.9.2 4.4z" fill="#af51bf"/></g></g><g transform="matrix(0.4458119220400956 0.11945494448681024 -0.11945494448681024 0.4458119220400956 320.23287299168436 -51.43246787337361)" id="L1_89"><path d="m136.7 117.7c-.8 14.2-2.7 28.2-6.4 42-.9 3.4-.7 7.1-1 10.7-.2 3-.2 3.1-3.2 3.1-4.9 0-9.8 0-14.6 0-1.4 0-2.2-.5-2.3-1.9-.7-12.3-4.1-24.2-6.1-36.3-1.7-10.4-3.4-20.8-5.1-31.2-.1-.5-.2-.9-.3-1.3-.1 0-.2 0-.3 0-.6 4.2-1.2 8.5-2 12.7-2.6 14.4-5.4 28.7-7.9 43.1-.7 4.1-1.1 8.3-1.5 12.5-.2 1.8-.8 2.5-2.8 2.5-5.1-.1-10.1-.1-15.2 0-1.2 0-2.2-.3-2.1-1.7.2-8.9-2.6-17.3-4.2-25.8-3.6-19.3-4.3-38.8-3.4-58.4.6-12.3 1.8-24.5 4.7-36.5 1.6-6.4 4.1-12.7 5.9-19 .6-2 .5-4.3.5-6.4.1-4.2 0-4.2 4.1-4.2h49c3.2 0 3.4.1 3.2 3.3-.2 3.8.5 7.2 1.9 10.8 4.4 10.8 6.3 22.3 7.7 33.8 1.9 15.9 2.3 32.1 1.4 48.2z" fill="#001b33"/><g fill="#bc4314"><path d="m112.9 161.7h12c-.1 2.3-.2 4.6-.4 7.1h-10.9c-.2-2.3-.4-4.6-.7-7.1z" fill="#af51bf"/><path d="m69.5 161.7h12c-.1 2.3-.2 4.6-.4 7.1h-10.8c-.3-2.3-.5-4.6-.8-7.1z" fill="#af51bf"/><path d="m132.5 86.1v14.6c0 1.1-.9 1.9-1.9 1.9-3 0-6.1 0-9.2-.1-.5 0-1.3-1-1.3-1.6-.1-4.9-.1-9.8-.1-14.9h12.5z" fill="#af51bf"/><path d="m74.8 86.1v14.6c0 1.1-.9 1.9-1.9 1.9-3 0-6.1 0-9.2-.1-.5 0-1.3-1-1.3-1.6-.1-4.9-.1-9.8-.1-14.9h12.5z" fill="#af51bf"/><path d="m73.2 25.3h48.5v5.3h-48.5z" fill="#af51bf"/></g></g><g transform="matrix(0.20512820780277252 0 0 0.20512820780277252 155 330)" id="L1_90"><path d="m173.5 146.2c0-6.3-2.3-8.6-8.8-8.6-.3 0-.6 0-.9 0 .7-17.2.2-33.9-7.4-49.7-7.6-15.9-19.5-27-36.6-31.8-2.7-.8-5.4-1.4-8.1-1.9 2.6-3.2 4.2-7.2 4.2-11.6 0-10.1-8.2-18.3-18.3-18.3s-18.3 8.2-18.3 18.3c0 4.4 1.5 8.4 4.1 11.6-2.8.5-5.6 1.2-8.3 2-15.7 4.6-27.3 14.2-34.9 28.6-6.4 12-9 24.9-9.1 38.4v14.6c-.4 0-.8 0-1.2 0-6.1 0-8.2 2.1-8.3 8.4-.1 5.4 0 10.9 0 16.4.1 5.4 2.8 8.1 8.3 8.1h135.2c5.7 0 8.2-2.3 8.3-8 .2-5.5.1-11 .1-16.5z" fill="#001b33"/><g fill="#bc4314"><path d="m37.2 164.5h-5.6c-.7 0-1.3-.6-1.3-1.3v-18.2c0-.7.6-1.3 1.3-1.3h5.6c.7 0 1.3.6 1.3 1.3v18.2c-.1.8-.6 1.3-1.3 1.3z" fill="#af51bf"/><path d="m53 164.5h-5.6c-.7 0-1.3-.6-1.3-1.3v-18.2c0-.7.6-1.3 1.3-1.3h5.6c.7 0 1.3.6 1.3 1.3v18.2c-.1.8-.6 1.3-1.3 1.3z" fill="#af51bf"/><path d="m68.8 164.5h-5.6c-.7 0-1.3-.6-1.3-1.3v-18.2c0-.7.6-1.3 1.3-1.3h5.6c.7 0 1.3.6 1.3 1.3v18.2c-.1.8-.7 1.3-1.3 1.3z" fill="#af51bf"/><path d="m84.5 164.5h-5.6c-.7 0-1.3-.6-1.3-1.3v-18.2c0-.7.6-1.3 1.3-1.3h5.6c.7 0 1.3.6 1.3 1.3v18.2c0 .8-.6 1.3-1.3 1.3z" fill="#af51bf"/><path d="m100.3 164.5h-5.6c-.7 0-1.3-.6-1.3-1.3v-18.2c0-.7.6-1.3 1.3-1.3h5.6c.7 0 1.3.6 1.3 1.3v18.2c0 .8-.6 1.3-1.3 1.3z" fill="#af51bf"/><path d="m116.1 164.5h-5.6c-.7 0-1.3-.6-1.3-1.3v-18.2c0-.7.6-1.3 1.3-1.3h5.6c.7 0 1.3.6 1.3 1.3v18.2c-.1.8-.6 1.3-1.3 1.3z" fill="#af51bf"/><path d="m131.9 164.5h-5.6c-.7 0-1.3-.6-1.3-1.3v-18.2c0-.7.6-1.3 1.3-1.3h5.6c.7 0 1.3.6 1.3 1.3v18.2c-.1.8-.6 1.3-1.3 1.3z" fill="#af51bf"/><path d="m147.6 164.5h-5.6c-.7 0-1.3-.6-1.3-1.3v-18.2c0-.7.6-1.3 1.3-1.3h5.6c.7 0 1.3.6 1.3 1.3v18.2c0 .8-.6 1.3-1.3 1.3z" fill="#af51bf"/><path d="m163.4 164.5h-5.6c-.7 0-1.3-.6-1.3-1.3v-18.2c0-.7.6-1.3 1.3-1.3h5.6c.7 0 1.3.6 1.3 1.3v18.2c0 .8-.6 1.3-1.3 1.3z" fill="#af51bf"/><path d="m97.6 48.6c-3.3 0-5.9-2.7-5.9-5.9 0-3.3 2.7-5.9 5.9-5.9 3.3 0 5.9 2.7 5.9 5.9s-2.6 5.9-5.9 5.9z" fill="#af51bf"/></g></g></defs><g fi:class="KUsePattern"><pattern id="pattern_L1_81" width="350" height="350" patternUnits="userSpaceOnUse"><use xlink:href="#L1_81" x="-350" y="-350"/><use xlink:href="#L1_81" x="0" y="-350"/><use xlink:href="#L1_81" x="350" y="-350"/><use xlink:href="#L1_81" x="-350" y="0"/><use xlink:href="#L1_81" x="0" y="0"/><use xlink:href="#L1_81" x="350" y="0"/><use xlink:href="#L1_81" x="-350" y="350"/><use xlink:href="#L1_81" x="0" y="350"/><use xlink:href="#L1_81" x="350" y="350"/></pattern><rect x="0" y="0" width="100%" height="100%" fill="url(#pattern_L1_81)"/></g><g fi:class="KUsePattern"><pattern id="pattern_L1_82" width="350" height="350" patternUnits="userSpaceOnUse"><use xlink:href="#L1_82" x="-350" y="-350"/><use xlink:href="#L1_82" x="0" y="-350"/><use xlink:href="#L1_82" x="350" y="-350"/><use xlink:href="#L1_82" x="-350" y="0"/><use xlink:href="#L1_82" x="0" y="0"/><use xlink:href="#L1_82" x="350" y="0"/><use xlink:href="#L1_82" x="-350" y="350"/><use xlink:href="#L1_82" x="0" y="350"/><use xlink:href="#L1_82" x="350" y="350"/></pattern><rect x="0" y="0" width="100%" height="100%" fill="url(#pattern_L1_82)"/></g><g fi:class="KUsePattern"><pattern id="pattern_L1_83" width="350" height="350" patternUnits="userSpaceOnUse"><use xlink:href="#L1_83" x="-350" y="-350"/><use xlink:href="#L1_83" x="0" y="-350"/><use xlink:href="#L1_83" x="350" y="-350"/><use xlink:href="#L1_83" x="-350" y="0"/><use xlink:href="#L1_83" x="0" y="0"/><use xlink:href="#L1_83" x="350" y="0"/><use xlink:href="#L1_83" x="-350" y="350"/><use xlink:href="#L1_83" x="0" y="350"/><use xlink:href="#L1_83" x="350" y="350"/></pattern><rect x="0" y="0" width="100%" height="100%" fill="url(#pattern_L1_83)"/></g><g fi:class="KUsePattern"><pattern id="pattern_L1_84" width="350" height="350" patternUnits="userSpaceOnUse"><use xlink:href="#L1_84" x="-350" y="-350"/><use xlink:href="#L1_84" x="0" y="-350"/><use xlink:href="#L1_84" x="350" y="-350"/><use xlink:href="#L1_84" x="-350" y="0"/><use xlink:href="#L1_84" x="0" y="0"/><use xlink:href="#L1_84" x="350" y="0"/><use xlink:href="#L1_84" x="-350" y="350"/><use xlink:href="#L1_84" x="0" y="350"/><use xlink:href="#L1_84" x="350" y="350"/></pattern><rect x="0" y="0" width="100%" height="100%" fill="url(#pattern_L1_84)"/></g><g fi:class="KUsePattern"><pattern id="pattern_L1_85" width="350" height="350" patternUnits="userSpaceOnUse"><use xlink:href="#L1_85" x="-350" y="-350"/><use xlink:href="#L1_85" x="0" y="-350"/><use xlink:href="#L1_85" x="350" y="-350"/><use xlink:href="#L1_85" x="-350" y="0"/><use xlink:href="#L1_85" x="0" y="0"/><use xlink:href="#L1_85" x="350" y="0"/><use xlink:href="#L1_85" x="-350" y="350"/><use xlink:href="#L1_85" x="0" y="350"/><use xlink:href="#L1_85" x="350" y="350"/></pattern><rect x="0" y="0" width="100%" height="100%" fill="url(#pattern_L1_85)"/></g><g fi:class="KUsePattern"><pattern id="pattern_L1_86" width="350" height="350" patternUnits="userSpaceOnUse"><use xlink:href="#L1_86" x="-350" y="-350"/><use xlink:href="#L1_86" x="0" y="-350"/><use xlink:href="#L1_86" x="350" y="-350"/><use xlink:href="#L1_86" x="-350" y="0"/><use xlink:href="#L1_86" x="0" y="0"/><use xlink:href="#L1_86" x="350" y="0"/><use xlink:href="#L1_86" x="-350" y="350"/><use xlink:href="#L1_86" x="0" y="350"/><use xlink:href="#L1_86" x="350" y="350"/></pattern><rect x="0" y="0" width="100%" height="100%" fill="url(#pattern_L1_86)"/></g><g fi:class="KUsePattern"><pattern id="pattern_L1_87" width="350" height="350" patternUnits="userSpaceOnUse"><use xlink:href="#L1_87" x="-350" y="-350"/><use xlink:href="#L1_87" x="0" y="-350"/><use xlink:href="#L1_87" x="350" y="-350"/><use xlink:href="#L1_87" x="-350" y="0"/><use xlink:href="#L1_87" x="0" y="0"/><use xlink:href="#L1_87" x="350" y="0"/><use xlink:href="#L1_87" x="-350" y="350"/><use xlink:href="#L1_87" x="0" y="350"/><use xlink:href="#L1_87" x="350" y="350"/></pattern><rect x="0" y="0" width="100%" height="100%" fill="url(#pattern_L1_87)"/></g><g fi:class="KUsePattern"><pattern id="pattern_L1_88" width="350" height="350" patternUnits="userSpaceOnUse"><use xlink:href="#L1_88" x="-350" y="-350"/><use xlink:href="#L1_88" x="0" y="-350"/><use xlink:href="#L1_88" x="350" y="-350"/><use xlink:href="#L1_88" x="-350" y="0"/><use xlink:href="#L1_88" x="0" y="0"/><use xlink:href="#L1_88" x="350" y="0"/><use xlink:href="#L1_88" x="-350" y="350"/><use xlink:href="#L1_88" x="0" y="350"/><use xlink:href="#L1_88" x="350" y="350"/></pattern><rect x="0" y="0" width="100%" height="100%" fill="url(#pattern_L1_88)"/></g><g fi:class="KUsePattern"><pattern id="pattern_L1_89" width="350" height="350" patternUnits="userSpaceOnUse"><use xlink:href="#L1_89" x="-350" y="-350"/><use xlink:href="#L1_89" x="0" y="-350"/><use xlink:href="#L1_89" x="350" y="-350"/><use xlink:href="#L1_89" x="-350" y="0"/><use xlink:href="#L1_89" x="0" y="0"/><use xlink:href="#L1_89" x="350" y="0"/><use xlink:href="#L1_89" x="-350" y="350"/><use xlink:href="#L1_89" x="0" y="350"/><use xlink:href="#L1_89" x="350" y="350"/></pattern><rect x="0" y="0" width="100%" height="100%" fill="url(#pattern_L1_89)"/></g><g fi:class="KUsePattern"><pattern id="pattern_L1_90" width="350" height="350" patternUnits="userSpaceOnUse"><use xlink:href="#L1_90" x="-350" y="-350"/><use xlink:href="#L1_90" x="0" y="-350"/><use xlink:href="#L1_90" x="350" y="-350"/><use xlink:href="#L1_90" x="-350" y="0"/><use xlink:href="#L1_90" x="0" y="0"/><use xlink:href="#L1_90" x="350" y="0"/><use xlink:href="#L1_90" x="-350" y="350"/><use xlink:href="#L1_90" x="0" y="350"/><use xlink:href="#L1_90" x="350" y="350"/></pattern><rect x="0" y="0" width="100%" height="100%" fill="url(#pattern_L1_90)"/></g></svg>